<svg xmlns="http://www.w3.org/2000/svg" xmlns:xlink="http://www.w3.org/1999/xlink" xmlns:lucid="lucid" width="699.85" height="499.75"><g transform="translate(0 0)" lucid:page-tab-id="0_0"><path d="M0 0h699.85v499.75H0z" fill="#fff"/><path d="M97.93 396.93h500.5M97.95 396.93h-1.02" stroke="#5e5e5e" stroke-width="2" fill="none"/><path d="M613.7 396.93l-14.28 4.63v-9.27z" stroke="#5e5e5e" stroke-width="2" fill="#5e5e5e"/><path d="M231.93 22.93c0-3.32 2.68-6 6-6h228c3.3 0 6 2.68 6 6v28c0 3.3-2.7 6-6 6h-228c-3.32 0-6-2.7-6-6z" stroke="#000" stroke-opacity="0" stroke-width="3" fill="#fff" fill-opacity="0"/><use xlink:href="#a" transform="matrix(1,0,0,1,236.92503176620085,21.92503176620079) translate(55.89506172839506 19.65277777777778)"/><use xlink:href="#b" transform="matrix(1,0,0,1,236.92503176620085,21.92503176620079) translate(116.26543209876543 19.65277777777778)"/><path d="M116.93 407.93V36.43M116.93 407.9v1.03" stroke="#5e5e5e" stroke-width="2" fill="none"/><path d="M116.93 21.16l4.63 14.27h-9.27z" stroke="#5e5e5e" stroke-width="2" fill="#5e5e5e"/><path d="M117 396.13l60.06-78.4M117.02 396.1l-.62.83M177.04 317.74l.63-.8M177.72 395.93v-78M177.72 395.9v1.03M177.72 317.95v-1.02M296.93 395.93v-157M296.93 395.9v1.03M296.93 238.94v-1.02M178.27 396.13l118.8-158.4M178.28 396.1l-.6.83M297.05 237.75l.62-.82M298.07 396.15L556.3 77.7M298.1 396.13l-.66.8M556.28 77.72l.65-.8M556.93 395.93v-318M556.93 395.9v1.03M556.93 77.95v-1.02" stroke="#5e5e5e" stroke-width="2" fill="none"/><path d="M97.43 236.93h2.02m4.06 0h4.06m4.06 0h4.06m4.05 0h4.06m4.04 0h4.06m4.05 0H140m4.06 0h4.06m4.06 0h4.05m4.06 0h4.04m4.06 0h4.05m4.06 0h4.06m4.06 0h4.06m4.05 0h4.06m4.04 0h4.06m4.05 0H213m4.06 0h4.06m4.06 0h4.05m4.06 0h4.04m4.06 0h4.05m4.06 0h4.06m4.06 0h4.06m4.05 0h4.06m4.04 0h4.06m4.05 0H286m4.06 0h4.06m4.06 0h4.05m4.06 0h4.04m4.06 0h2.03M97.44 236.93h-.5M316.4 236.93h.53M97.43 316.93h2.06m4.1 0h4.14m4.12 0H116m4.1 0h4.14m4.12 0h4.13m4.1 0h4.14m4.12 0H149m4.1 0h4.14m4.12 0h4.13m4.1 0h4.14m4.12 0H182m4.1 0h4.14m4.12 0h2.07M97.44 316.93h-.5M196.4 316.93h.53M97.43 76.93h2m3.98 0h4m4 0h4m3.98 0h4m3.98 0h4m4 0h3.98m4 0h3.98m4 0h3.98m4 0h4m3.98 0h4m3.98 0h4m4 0h3.98m4 0h3.98m4 0h3.98m4 0h4m3.98 0h4m3.98 0h4m4 0h3.98m4 0h3.98m4 0h3.98m4 0h4m3.98 0h4m3.98 0h4m4 0h3.98m4 0H291m4 0H299m4 0h4m3.98 0h4m3.98 0h4m4 0h3.98m4 0h3.98m4 0h3.98m4 0h4m3.98 0h4m3.98 0h4m4 0h3.98m4 0h3.98m4 0h3.98m4 0h4m3.98 0h4m3.98 0h4m4 0h3.98m4 0h3.98m4 0h3.98m4 0h4m3.98 0h4m3.98 0h4m4 0h3.98m4 0h3.98m4 0h3.98m4 0h4m3.98 0h4m3.98 0h4m4 0h3.98m4 0h3.98m4 0h3.98m4 0h4m3.98 0h4m3.98 0h4m4 0h3.98m4 0h2M97.44 76.93h-.5M576.4 76.93h.53" stroke="#5e5e5e" fill="none"/><path d="M602.93 371.93c0-3.32 2.68-6 6-6h68c3.3 0 6 2.68 6 6v28c0 3.3-2.7 6-6 6h-68c-3.32 0-6-2.7-6-6z" stroke="#000" stroke-opacity="0" stroke-width="3" fill="#fff" fill-opacity="0"/><use xlink:href="#c" transform="matrix(1,0,0,1,607.9250317662007,370.9250317662008) translate(7.901234567901234 19.65277777777778)"/><use xlink:href="#d" transform="matrix(1,0,0,1,607.9250317662007,370.9250317662008) translate(55.925925925925924 19.65277777777778)"/><path d="M16.93 22.93c0-3.32 2.68-6 6-6h68c3.3 0 6 2.68 6 6v28c0 3.3-2.7 6-6 6h-68c-3.32 0-6-2.7-6-6z" stroke="#000" stroke-opacity="0" stroke-width="3" fill="#fff" fill-opacity="0"/><use xlink:href="#e" transform="matrix(1,0,0,1,21.92503176620076,21.92503176620079) translate(-2.0061728395061778 19.444444444444443)"/><path d="M121.93 436.93h19.55M122.05 436.93h-5.12" stroke="#ef8d22" stroke-width="10" fill="none"/><path d="M160.74 436.93l-14.26 4.63v-9.27z" stroke="#ef8d22" stroke-width="10" fill="#ef8d22"/><path d="M181.93 436.93h79.55M182.05 436.93h-5.12" stroke="#ef8d22" stroke-width="10" fill="none"/><path d="M280.74 436.93l-14.26 4.63v-9.27z" stroke="#ef8d22" stroke-width="10" fill="#ef8d22"/><path d="M301.93 436.93h219.55M302.05 436.93h-5.12" stroke="#ef8d22" stroke-width="10" fill="none"/><path d="M540.74 436.93l-14.26 4.63v-9.27z" stroke="#ef8d22" stroke-width="10" fill="#ef8d22"/><path d="M116.93 454.93c0-3.32 2.68-6 6-6h48c3.3 0 6 2.68 6 6v28c0 3.3-2.7 6-6 6h-48c-3.32 0-6-2.7-6-6z" stroke="#000" stroke-opacity="0" stroke-width="3" fill="#fff" fill-opacity="0"/><use xlink:href="#f" transform="matrix(1,0,0,1,121.92503176620076,453.9250317662008) translate(15.74074074074074 19.65277777777778)"/><path d="M236.93 454.93c0-3.32 2.68-6 6-6h48c3.3 0 6 2.68 6 6v28c0 3.3-2.7 6-6 6h-48c-3.32 0-6-2.7-6-6z" stroke="#000" stroke-opacity="0" stroke-width="3" fill="#fff" fill-opacity="0"/><use xlink:href="#g" transform="matrix(1,0,0,1,241.92503176620073,453.9250317662008) translate(15.74074074074074 19.65277777777778)"/><path d="M476.93 454.93c0-3.32 2.68-6 6-6h48c3.3 0 6 2.68 6 6v28c0 3.3-2.7 6-6 6h-48c-3.32 0-6-2.7-6-6z" stroke="#000" stroke-opacity="0" stroke-width="3" fill="#fff" fill-opacity="0"/><use xlink:href="#h" transform="matrix(1,0,0,1,481.9250317662008,453.9250317662008) translate(15.74074074074074 19.65277777777778)"/><path d="M181.93 397.43c0 2.48-2.02 4.5-4.5 4.5-2.5 0-4.5-2.02-4.5-4.5 0-2.5 2-4.5 4.5-4.5 2.48 0 4.5 2 4.5 4.5zM301.93 397.43c0 2.48-2.02 4.5-4.5 4.5-2.5 0-4.5-2.02-4.5-4.5 0-2.5 2-4.5 4.5-4.5 2.48 0 4.5 2 4.5 4.5zM561.93 397.43c0 2.48-2.02 4.5-4.5 4.5-2.5 0-4.5-2.02-4.5-4.5 0-2.5 2-4.5 4.5-4.5 2.48 0 4.5 2 4.5 4.5z" stroke="#c92d39" stroke-width="3" fill="#c92d39"/><defs><path fill="#0c7cba" d="M250-142C247-53 197 0 108 0H6l48-248c105-5 200 3 196 106zm-49 2c1-57-42-72-103-68L66-40c84 6 135-22 135-100" id="i"/><path fill="#0c7cba" d="M114-194c63-2 87 48 72 110H63c-3 28 1 55 31 54 21-1 32-13 37-29l44 13C160-14 137 4 91 4 41 4 11-22 11-73c0-71 33-119 103-121zm30 77c14-47-50-61-67-22-3 6-6 13-8 22h75" id="j"/><path fill="#0c7cba" d="M6 0l51-261h49L55 0H6" id="k"/><path fill="#0c7cba" d="M72-63c-8 23 5 39 32 30L98-1C54 14 12-6 23-64l18-93H15l7-33h28l24-45h31l-8 45h35l-6 33H90" id="l"/><path fill="#0c7cba" d="M166-52c-4 17 5 29 24 23l-3 27c-30 11-74 1-67-34C105-15 91 4 56 4 23 4 3-15 2-49c0-64 63-67 128-67 10-22 3-53-29-45-13 3-22 10-25 24l-46-5c5-64 156-77 153 0-1 33-11 60-17 90zM97-88c-44-9-64 57-19 57 31 0 42-28 47-57H97" id="m"/><g id="a"><use transform="matrix(0.06172839506172839,0,0,0.06172839506172839,0,0)" xlink:href="#i"/><use transform="matrix(0.06172839506172839,0,0,0.06172839506172839,15.987654320987653,0)" xlink:href="#j"/><use transform="matrix(0.06172839506172839,0,0,0.06172839506172839,28.333333333333332,0)" xlink:href="#k"/><use transform="matrix(0.06172839506172839,0,0,0.06172839506172839,34.50617283950617,0)" xlink:href="#l"/><use transform="matrix(0.06172839506172839,0,0,0.06172839506172839,41.85185185185185,0)" xlink:href="#m"/></g><path fill="#0c7cba" d="M212 0l43-212L151 0h-37L90-212C82-137 65-70 52 0H6l48-248h70l20 187 93-187h69L258 0h-46" id="n"/><path fill="#0c7cba" d="M124-194c51 0 84 22 84 74C207-44 167 4 94 4 43 4 11-23 11-74c0-74 41-120 113-120zM99-30c46 0 58-42 58-86 0-27-11-44-37-44-44 0-55 40-57 84-1 27 10 45 36 46" id="o"/><path fill="#0c7cba" d="M132-28C118-9 101 4 69 4 30 4 10-23 10-62c0-70 24-129 92-132 31-1 47 14 56 35l19-102h49L179 0h-49zM62-69c0 22 7 39 29 39 45-2 54-45 57-90 2-27-10-40-33-40-44 0-53 48-53 91" id="p"/><g id="b"><use transform="matrix(0.06172839506172839,0,0,0.06172839506172839,0,0)" xlink:href="#n"/><use transform="matrix(0.06172839506172839,0,0,0.06172839506172839,18.456790123456788,0)" xlink:href="#o"/><use transform="matrix(0.06172839506172839,0,0,0.06172839506172839,31.9753086419753,0)" xlink:href="#p"/><use transform="matrix(0.06172839506172839,0,0,0.06172839506172839,45.49382716049382,0)" xlink:href="#j"/></g><path fill="#333" d="M59-47c-2 24 18 29 38 22v24C64 9 27 4 27-40v-127H5v-23h24l9-43h21v43h35v23H59v120" id="q"/><path fill="#333" d="M24-231v-30h32v30H24zM24 0v-190h32V0H24" id="r"/><path fill="#333" d="M210-169c-67 3-38 105-44 169h-31v-121c0-29-5-50-35-48C34-165 62-65 56 0H25l-1-190h30c1 10-1 24 2 32 10-44 99-50 107 0 11-21 27-35 58-36 85-2 47 119 55 194h-31v-121c0-29-5-49-35-48" id="s"/><path fill="#333" d="M100-194c63 0 86 42 84 106H49c0 40 14 67 53 68 26 1 43-12 49-29l28 8c-11 28-37 45-77 45C44 4 14-33 15-96c1-61 26-98 85-98zm52 81c6-60-76-77-97-28-3 7-6 17-6 28h103" id="t"/><g id="c"><use transform="matrix(0.06172839506172839,0,0,0.06172839506172839,0,0)" xlink:href="#q"/><use transform="matrix(0.06172839506172839,0,0,0.06172839506172839,6.172839506172839,0)" xlink:href="#r"/><use transform="matrix(0.06172839506172839,0,0,0.06172839506172839,11.049382716049383,0)" xlink:href="#s"/><use transform="matrix(0.06172839506172839,0,0,0.06172839506172839,29.50617283950617,0)" xlink:href="#t"/></g><use transform="matrix(0.06172839506172839,0,0,0.06172839506172839,0,0)" xlink:href="#q" id="d"/><path fill="#333" d="M96-169c-40 0-48 33-48 73s9 75 48 75c24 0 41-14 43-38l32 2c-6 37-31 61-74 61-59 0-76-41-82-99-10-93 101-131 147-64 4 7 5 14 7 22l-32 3c-4-21-16-35-41-35" id="u"/><path fill="#333" d="M100-194c62-1 85 37 85 99 1 63-27 99-86 99S16-35 15-95c0-66 28-99 85-99zM99-20c44 1 53-31 53-75 0-43-8-75-51-75s-53 32-53 75 10 74 51 75" id="v"/><path fill="#333" d="M84 4C-5 8 30-112 23-190h32v120c0 31 7 50 39 49 72-2 45-101 50-169h31l1 190h-30c-1-10 1-25-2-33-11 22-28 36-60 37" id="w"/><path fill="#333" d="M117-194c89-4 53 116 60 194h-32v-121c0-31-8-49-39-48C34-167 62-67 57 0H25l-1-190h30c1 10-1 24 2 32 11-22 29-35 61-36" id="x"/><path fill="#333" d="M114-163C36-179 61-72 57 0H25l-1-190h30c1 12-1 29 2 39 6-27 23-49 58-41v29" id="y"/><g id="e"><use transform="matrix(0.06172839506172839,0,0,0.06172839506172839,0,0)" xlink:href="#u"/><use transform="matrix(0.06172839506172839,0,0,0.06172839506172839,11.11111111111111,0)" xlink:href="#v"/><use transform="matrix(0.06172839506172839,0,0,0.06172839506172839,23.45679012345679,0)" xlink:href="#w"/><use transform="matrix(0.06172839506172839,0,0,0.06172839506172839,35.80246913580247,0)" xlink:href="#x"/><use transform="matrix(0.06172839506172839,0,0,0.06172839506172839,48.148148148148145,0)" xlink:href="#q"/><use transform="matrix(0.06172839506172839,0,0,0.06172839506172839,54.32098765432099,0)" xlink:href="#t"/><use transform="matrix(0.06172839506172839,0,0,0.06172839506172839,66.66666666666667,0)" xlink:href="#y"/></g><path fill="#333" d="M27 0v-27h64v-190l-56 39v-29l58-41h29v221h61V0H27" id="z"/><g id="f"><use transform="matrix(0.06172839506172839,0,0,0.06172839506172839,0,0)" xlink:href="#q"/><use transform="matrix(0.06172839506172839,0,0,0.06172839506172839,6.172839506172839,0)" xlink:href="#z"/></g><path fill="#333" d="M101-251c82-7 93 87 43 132L82-64C71-53 59-42 53-27h129V0H18c2-99 128-94 128-182 0-28-16-43-45-43s-46 15-49 41l-32-3c6-41 34-60 81-64" id="A"/><g id="g"><use transform="matrix(0.06172839506172839,0,0,0.06172839506172839,0,0)" xlink:href="#q"/><use transform="matrix(0.06172839506172839,0,0,0.06172839506172839,6.172839506172839,0)" xlink:href="#A"/></g><path fill="#333" d="M126-127c33 6 58 20 58 59 0 88-139 92-164 29-3-8-5-16-6-25l32-3c6 27 21 44 54 44 32 0 52-15 52-46 0-38-36-46-79-43v-28c39 1 72-4 72-42 0-27-17-43-46-43-28 0-47 15-49 41l-32-3c6-42 35-63 81-64 48-1 79 21 79 65 0 36-21 52-52 59" id="B"/><g id="h"><use transform="matrix(0.06172839506172839,0,0,0.06172839506172839,0,0)" xlink:href="#q"/><use transform="matrix(0.06172839506172839,0,0,0.06172839506172839,6.172839506172839,0)" xlink:href="#B"/></g></defs></g></svg>