<svg xmlns="http://www.w3.org/2000/svg" xmlns:xlink="http://www.w3.org/1999/xlink" xmlns:lucid="lucid" width="712" height="274"><g transform="translate(2.922490470139792 13.922490470139792)" lucid:page-tab-id="0_0"><path d="M0 0h706.16v255.5H0z" fill="#fff"/><path d="M232.08 23.08c0-3.32 2.68-6 6-6h228c3.3 0 6 2.68 6 6v28c0 3.3-2.7 6-6 6h-228c-3.32 0-6-2.7-6-6z" stroke="#000" stroke-opacity="0" stroke-width="3" fill="#fff" fill-opacity="0"/><use xlink:href="#a" transform="matrix(1,0,0,1,237.0775095298602,22.077509529860208) translate(50.308641975308646 19.65277777777778)"/><use xlink:href="#b" transform="matrix(1,0,0,1,237.0775095298602,22.077509529860208) translate(121.85185185185186 19.65277777777778)"/><path d="M98.08 147.08h500.5M98.1 147.08h-1.02" stroke="#5e5e5e" stroke-width="2" fill="none"/><path d="M613.84 147.08l-14.26 4.63v-9.26z" stroke="#5e5e5e" stroke-width="2" fill="#5e5e5e"/><path d="M117.08 156.08V35.58M117.08 156.05v1.03" stroke="#5e5e5e" stroke-width="2" fill="none"/><path d="M117.08 20.3l4.63 14.28h-9.26z" stroke="#5e5e5e" stroke-width="2" fill="#5e5e5e"/><path d="M97.58 87.08h2m4 0h3.98m4 0h3.98m4 0h3.98m4 0h4m3.98 0h4m3.98 0h4m4 0h3.98m4 0h3.98m4 0h3.98m4 0h4m3.98 0h4m3.98 0h4m4 0h3.98m4 0h3.98m4 0h3.98m4 0h4m3.98 0h4m3.98 0h4m4 0h3.98m4 0h3.98m4 0h3.98m4 0h4m3.98 0h4m3.98 0h4m4 0h3.98m4 0h3.98m4 0h3.98m4 0h4m3.98 0h4m3.98 0h4m4 0h3.98m4 0h3.98m4 0H363m4 0h4m3.98 0h4m3.98 0h4m4 0h3.98m4 0h3.98m4 0h3.98m4 0h4m3.98 0h4m3.98 0h4m4 0h3.98m4 0h3.98m4 0h3.98m4 0h4m3.98 0h4m3.98 0h4m4 0h3.98m4 0h3.98m4 0h3.98m4 0h4m3.98 0h4m3.98 0h4m4 0h3.98m4 0h3.98m4 0h3.98m4 0h4m3.98 0h4m3.98 0h2M97.6 87.08h-.52M576.56 87.08h.52" stroke="#5e5e5e" fill="none"/><path d="M117.63 146.25l38.9-58.34M117.65 146.22l-.57.86M156.5 87.93l.58-.85M157.08 146.08v-58M157.08 146.05v1.03M157.08 88.1v-1.02M157.63 146.25l38.9-58.34M157.65 146.22l-.57.86M196.5 87.93l.58-.85M197.08 146.08v-58M197.08 146.05v1.03M197.08 88.1v-1.02M197.63 146.25l38.9-58.34M197.65 146.22l-.57.86M236.5 87.93l.58-.85M237.08 146.08v-58M237.08 146.05v1.03M237.08 88.1v-1.02M237.63 146.25l38.9-58.34M237.65 146.22l-.57.86M276.5 87.93l.58-.85M277.08 146.08v-58M277.08 146.05v1.03M277.08 88.1v-1.02M277.63 146.25l38.9-58.34M277.65 146.22l-.57.86M316.5 87.93l.58-.85M317.08 146.08v-58M317.08 146.05v1.03M317.08 88.1v-1.02M317.63 146.25l38.9-58.34M317.65 146.22l-.57.86M356.5 87.93l.58-.85M357.08 146.08v-58M357.08 146.05v1.03M357.08 88.1v-1.02M357.63 146.25l38.9-58.34M357.65 146.22l-.57.86M396.5 87.93l.58-.85M397.08 146.08v-58M397.08 146.05v1.03M397.08 88.1v-1.02M397.63 146.25l38.9-58.34M397.65 146.22l-.57.86M436.5 87.93l.58-.85M437.08 146.08v-58M437.08 146.05v1.03M437.08 88.1v-1.02M437.63 146.25l38.9-58.34M437.65 146.22l-.57.86M476.5 87.93l.58-.85M477.08 146.08v-58M477.08 146.05v1.03M477.08 88.1v-1.02M477.63 146.25l38.9-58.34M477.65 146.22l-.57.86M516.5 87.93l.58-.85M517.08 146.08v-58M517.08 146.05v1.03M517.08 88.1v-1.02M517.63 146.25l38.9-58.34M517.65 146.22l-.57.86M556.5 87.93l.58-.85M557.08 146.08v-58M557.08 146.05v1.03M557.08 88.1v-1.02" stroke="#5e5e5e" stroke-width="2" fill="none"/><path d="M609.08 126.08c0-3.32 2.68-6 6-6h68c3.3 0 6 2.68 6 6v28c0 3.3-2.7 6-6 6h-68c-3.32 0-6-2.7-6-6z" stroke="#000" stroke-opacity="0" stroke-width="3" fill="#fff" fill-opacity="0"/><use xlink:href="#c" transform="matrix(1,0,0,1,614.0775095298602,125.07750952986021) translate(7.901234567901234 19.65277777777778)"/><use xlink:href="#d" transform="matrix(1,0,0,1,614.0775095298602,125.07750952986021) translate(55.925925925925924 19.65277777777778)"/><path d="M17.08 23.08c0-3.32 2.68-6 6-6h68c3.3 0 6 2.68 6 6v28c0 3.3-2.7 6-6 6h-68c-3.32 0-6-2.7-6-6z" stroke="#000" stroke-opacity="0" stroke-width="3" fill="#fff" fill-opacity="0"/><use xlink:href="#e" transform="matrix(1,0,0,1,22.077509529860208,22.077509529860208) translate(-2.0061728395061778 19.444444444444443)"/><path d="M122.08 188.08h39.55M122.2 188.08h-5.12" stroke="#ef8d22" stroke-width="10" fill="none"/><path d="M180.9 188.08l-14.27 4.63v-9.26z" stroke="#ef8d22" stroke-width="10" fill="#ef8d22"/><path d="M202.08 188.08h79.55M202.2 188.08h-5.12" stroke="#ef8d22" stroke-width="10" fill="none"/><path d="M300.9 188.08l-14.27 4.63v-9.26z" stroke="#ef8d22" stroke-width="10" fill="#ef8d22"/><path d="M322.08 188.08h199.55M322.2 188.08h-5.12" stroke="#ef8d22" stroke-width="10" fill="none"/><path d="M540.9 188.08l-14.27 4.63v-9.26z" stroke="#ef8d22" stroke-width="10" fill="#ef8d22"/><path d="M117.08 206.08c0-3.32 2.68-6 6-6h48c3.3 0 6 2.68 6 6v28c0 3.3-2.7 6-6 6h-48c-3.32 0-6-2.7-6-6z" stroke="#000" stroke-opacity="0" stroke-width="3" fill="#fff" fill-opacity="0"/><use xlink:href="#f" transform="matrix(1,0,0,1,122.07750952986021,205.07750952986018) translate(15.74074074074074 19.65277777777778)"/><path d="M237.08 206.08c0-3.32 2.68-6 6-6h48c3.3 0 6 2.68 6 6v28c0 3.3-2.7 6-6 6h-48c-3.32 0-6-2.7-6-6z" stroke="#000" stroke-opacity="0" stroke-width="3" fill="#fff" fill-opacity="0"/><use xlink:href="#g" transform="matrix(1,0,0,1,242.0775095298602,205.07750952986018) translate(15.74074074074074 19.65277777777778)"/><path d="M477.08 206.08c0-3.32 2.68-6 6-6h48c3.3 0 6 2.68 6 6v28c0 3.3-2.7 6-6 6h-48c-3.32 0-6-2.7-6-6z" stroke="#000" stroke-opacity="0" stroke-width="3" fill="#fff" fill-opacity="0"/><use xlink:href="#h" transform="matrix(1,0,0,1,482.0775095298602,205.07750952986018) translate(15.74074074074074 19.65277777777778)"/><path d="M161.08 147.58c0 2.48-2.02 4.5-4.5 4.5-2.5 0-4.5-2.02-4.5-4.5 0-2.5 2-4.5 4.5-4.5 2.48 0 4.5 2 4.5 4.5zM201.08 147.58c0 2.48-2.02 4.5-4.5 4.5-2.5 0-4.5-2.02-4.5-4.5 0-2.5 2-4.5 4.5-4.5 2.48 0 4.5 2 4.5 4.5zM241.08 147.58c0 2.48-2.02 4.5-4.5 4.5-2.5 0-4.5-2.02-4.5-4.5 0-2.5 2-4.5 4.5-4.5 2.48 0 4.5 2 4.5 4.5zM281.08 147.58c0 2.48-2.02 4.5-4.5 4.5-2.5 0-4.5-2.02-4.5-4.5 0-2.5 2-4.5 4.5-4.5 2.48 0 4.5 2 4.5 4.5zM321.08 147.58c0 2.48-2.02 4.5-4.5 4.5-2.5 0-4.5-2.02-4.5-4.5 0-2.5 2-4.5 4.5-4.5 2.48 0 4.5 2 4.5 4.5zM361.08 147.58c0 2.48-2.02 4.5-4.5 4.5-2.5 0-4.5-2.02-4.5-4.5 0-2.5 2-4.5 4.5-4.5 2.48 0 4.5 2 4.5 4.5zM401.08 147.58c0 2.48-2.02 4.5-4.5 4.5-2.5 0-4.5-2.02-4.5-4.5 0-2.5 2-4.5 4.5-4.5 2.48 0 4.5 2 4.5 4.5zM441.08 147.58c0 2.48-2.02 4.5-4.5 4.5-2.5 0-4.5-2.02-4.5-4.5 0-2.5 2-4.5 4.5-4.5 2.48 0 4.5 2 4.5 4.5zM481.08 147.58c0 2.48-2.02 4.5-4.5 4.5-2.5 0-4.5-2.02-4.5-4.5 0-2.5 2-4.5 4.5-4.5 2.48 0 4.5 2 4.5 4.5zM521.08 147.58c0 2.48-2.02 4.5-4.5 4.5-2.5 0-4.5-2.02-4.5-4.5 0-2.5 2-4.5 4.5-4.5 2.48 0 4.5 2 4.5 4.5zM561.08 147.58c0 2.48-2.02 4.5-4.5 4.5-2.5 0-4.5-2.02-4.5-4.5 0-2.5 2-4.5 4.5-4.5 2.48 0 4.5 2 4.5 4.5z" stroke="#c92d39" stroke-width="3" fill="#c92d39"/><defs><path fill="#0c7cba" d="M161-211c-63 0-91 46-91 110 0 39 17 65 58 64 38-1 60-20 74-45l40 20C220-23 184 0 125 4 9 13-10-144 57-208c33-50 166-62 196-1 4 8 9 18 11 27l-48 12c-6-24-25-41-55-41" id="i"/><path fill="#0c7cba" d="M100 10C77 47 50 87-15 72l7-35c37 9 51-18 65-41L20-190h51L89-44l73-146h53" id="j"/><path fill="#0c7cba" d="M67-101c-8 29-7 73 27 71 23-2 32-16 39-37l48 9C170-19 141 4 91 4 36 4 7-28 12-86c6-75 61-124 140-103 26 7 40 29 43 59l-50 4c-1-20-9-34-29-34-35 0-41 29-49 59" id="k"/><path fill="#0c7cba" d="M6 0l51-261h49L55 0H6" id="l"/><path fill="#0c7cba" d="M50-224l7-37h49l-7 37H50zM6 0l37-190h49L55 0H6" id="m"/><g id="a"><use transform="matrix(0.06172839506172839,0,0,0.06172839506172839,0,0)" xlink:href="#i"/><use transform="matrix(0.06172839506172839,0,0,0.06172839506172839,15.987654320987653,0)" xlink:href="#j"/><use transform="matrix(0.06172839506172839,0,0,0.06172839506172839,28.333333333333332,0)" xlink:href="#k"/><use transform="matrix(0.06172839506172839,0,0,0.06172839506172839,40.67901234567901,0)" xlink:href="#l"/><use transform="matrix(0.06172839506172839,0,0,0.06172839506172839,46.851851851851855,0)" xlink:href="#m"/><use transform="matrix(0.06172839506172839,0,0,0.06172839506172839,53.0246913580247,0)" xlink:href="#k"/></g><path fill="#0c7cba" d="M212 0l43-212L151 0h-37L90-212C82-137 65-70 52 0H6l48-248h70l20 187 93-187h69L258 0h-46" id="n"/><path fill="#0c7cba" d="M124-194c51 0 84 22 84 74C207-44 167 4 94 4 43 4 11-23 11-74c0-74 41-120 113-120zM99-30c46 0 58-42 58-86 0-27-11-44-37-44-44 0-55 40-57 84-1 27 10 45 36 46" id="o"/><path fill="#0c7cba" d="M132-28C118-9 101 4 69 4 30 4 10-23 10-62c0-70 24-129 92-132 31-1 47 14 56 35l19-102h49L179 0h-49zM62-69c0 22 7 39 29 39 45-2 54-45 57-90 2-27-10-40-33-40-44 0-53 48-53 91" id="p"/><path fill="#0c7cba" d="M114-194c63-2 87 48 72 110H63c-3 28 1 55 31 54 21-1 32-13 37-29l44 13C160-14 137 4 91 4 41 4 11-22 11-73c0-71 33-119 103-121zm30 77c14-47-50-61-67-22-3 6-6 13-8 22h75" id="q"/><g id="b"><use transform="matrix(0.06172839506172839,0,0,0.06172839506172839,0,0)" xlink:href="#n"/><use transform="matrix(0.06172839506172839,0,0,0.06172839506172839,18.456790123456788,0)" xlink:href="#o"/><use transform="matrix(0.06172839506172839,0,0,0.06172839506172839,31.9753086419753,0)" xlink:href="#p"/><use transform="matrix(0.06172839506172839,0,0,0.06172839506172839,45.49382716049382,0)" xlink:href="#q"/></g><path fill="#333" d="M59-47c-2 24 18 29 38 22v24C64 9 27 4 27-40v-127H5v-23h24l9-43h21v43h35v23H59v120" id="r"/><path fill="#333" d="M24-231v-30h32v30H24zM24 0v-190h32V0H24" id="s"/><path fill="#333" d="M210-169c-67 3-38 105-44 169h-31v-121c0-29-5-50-35-48C34-165 62-65 56 0H25l-1-190h30c1 10-1 24 2 32 10-44 99-50 107 0 11-21 27-35 58-36 85-2 47 119 55 194h-31v-121c0-29-5-49-35-48" id="t"/><path fill="#333" d="M100-194c63 0 86 42 84 106H49c0 40 14 67 53 68 26 1 43-12 49-29l28 8c-11 28-37 45-77 45C44 4 14-33 15-96c1-61 26-98 85-98zm52 81c6-60-76-77-97-28-3 7-6 17-6 28h103" id="u"/><g id="c"><use transform="matrix(0.06172839506172839,0,0,0.06172839506172839,0,0)" xlink:href="#r"/><use transform="matrix(0.06172839506172839,0,0,0.06172839506172839,6.172839506172839,0)" xlink:href="#s"/><use transform="matrix(0.06172839506172839,0,0,0.06172839506172839,11.049382716049383,0)" xlink:href="#t"/><use transform="matrix(0.06172839506172839,0,0,0.06172839506172839,29.50617283950617,0)" xlink:href="#u"/></g><use transform="matrix(0.06172839506172839,0,0,0.06172839506172839,0,0)" xlink:href="#r" id="d"/><path fill="#333" d="M96-169c-40 0-48 33-48 73s9 75 48 75c24 0 41-14 43-38l32 2c-6 37-31 61-74 61-59 0-76-41-82-99-10-93 101-131 147-64 4 7 5 14 7 22l-32 3c-4-21-16-35-41-35" id="v"/><path fill="#333" d="M100-194c62-1 85 37 85 99 1 63-27 99-86 99S16-35 15-95c0-66 28-99 85-99zM99-20c44 1 53-31 53-75 0-43-8-75-51-75s-53 32-53 75 10 74 51 75" id="w"/><path fill="#333" d="M84 4C-5 8 30-112 23-190h32v120c0 31 7 50 39 49 72-2 45-101 50-169h31l1 190h-30c-1-10 1-25-2-33-11 22-28 36-60 37" id="x"/><path fill="#333" d="M117-194c89-4 53 116 60 194h-32v-121c0-31-8-49-39-48C34-167 62-67 57 0H25l-1-190h30c1 10-1 24 2 32 11-22 29-35 61-36" id="y"/><path fill="#333" d="M114-163C36-179 61-72 57 0H25l-1-190h30c1 12-1 29 2 39 6-27 23-49 58-41v29" id="z"/><g id="e"><use transform="matrix(0.06172839506172839,0,0,0.06172839506172839,0,0)" xlink:href="#v"/><use transform="matrix(0.06172839506172839,0,0,0.06172839506172839,11.11111111111111,0)" xlink:href="#w"/><use transform="matrix(0.06172839506172839,0,0,0.06172839506172839,23.45679012345679,0)" xlink:href="#x"/><use transform="matrix(0.06172839506172839,0,0,0.06172839506172839,35.80246913580247,0)" xlink:href="#y"/><use transform="matrix(0.06172839506172839,0,0,0.06172839506172839,48.148148148148145,0)" xlink:href="#r"/><use transform="matrix(0.06172839506172839,0,0,0.06172839506172839,54.32098765432099,0)" xlink:href="#u"/><use transform="matrix(0.06172839506172839,0,0,0.06172839506172839,66.66666666666667,0)" xlink:href="#z"/></g><path fill="#333" d="M27 0v-27h64v-190l-56 39v-29l58-41h29v221h61V0H27" id="A"/><g id="f"><use transform="matrix(0.06172839506172839,0,0,0.06172839506172839,0,0)" xlink:href="#r"/><use transform="matrix(0.06172839506172839,0,0,0.06172839506172839,6.172839506172839,0)" xlink:href="#A"/></g><path fill="#333" d="M101-251c82-7 93 87 43 132L82-64C71-53 59-42 53-27h129V0H18c2-99 128-94 128-182 0-28-16-43-45-43s-46 15-49 41l-32-3c6-41 34-60 81-64" id="B"/><g id="g"><use transform="matrix(0.06172839506172839,0,0,0.06172839506172839,0,0)" xlink:href="#r"/><use transform="matrix(0.06172839506172839,0,0,0.06172839506172839,6.172839506172839,0)" xlink:href="#B"/></g><path fill="#333" d="M126-127c33 6 58 20 58 59 0 88-139 92-164 29-3-8-5-16-6-25l32-3c6 27 21 44 54 44 32 0 52-15 52-46 0-38-36-46-79-43v-28c39 1 72-4 72-42 0-27-17-43-46-43-28 0-47 15-49 41l-32-3c6-42 35-63 81-64 48-1 79 21 79 65 0 36-21 52-52 59" id="C"/><g id="h"><use transform="matrix(0.06172839506172839,0,0,0.06172839506172839,0,0)" xlink:href="#r"/><use transform="matrix(0.06172839506172839,0,0,0.06172839506172839,6.172839506172839,0)" xlink:href="#C"/></g></defs></g></svg>