<svg xmlns="http://www.w3.org/2000/svg" xmlns:xlink="http://www.w3.org/1999/xlink" viewBox="0 0 341.5 300.33"><defs><style>.a,.b,.d{stroke:#000;}.a,.b,.c,.d,.e{stroke-linecap:round;stroke-linejoin:round;}.a{fill:url(#a);}.b,.d{fill:#fff;}.c{fill:#ffca4c;stroke:#f29400;}.c,.e{stroke-width:2px;}.d{fill-opacity:0.3;stroke-dasharray:4 6;}.e{fill:#69d4ff;stroke:#009ee0;}.f{isolation:isolate;}</style><linearGradient id="a" x1="-116.24" y1="647.59" x2="-115.61" y2="646.96" gradientTransform="matrix(500, 0, 0, -525, 58134, 339968.83)" gradientUnits="userSpaceOnUse"><stop offset="0" stop-color="#c8ffff"/><stop offset="1" stop-color="#44b9fd"/></linearGradient></defs><title>canopen-dictionary-memory</title><path class="a" d="M.5.5H341V299.83H.5Z"/><path class="b" d="M189.83,39.33H323.92v244.5H189.83Z"/><path class="b" d="M18.92,39.33H153v244.5H18.92Z"/><path class="c" d="M199.87,92.39H255v180.3H199.87Z"/><path class="d" d="M205.54,242.19H250V268h-44.5Z"/><path class="e" d="M260.46,272.69V92.39h53.42v180.3Z"/><path class="d" d="M205.43,146.5h44v95.83h-44Z"/><g class="f"><g class="f"><path d="M270.86,107.76l1.5-7.16h5l-.26,1.2h-3.53l-.37,1.71h3.47l-.25,1.2H273l-.64,3.05Z"/><path d="M277,107.76l1.5-7.16H280l-1.24,6h3.64l-.25,1.2Z"/><path d="M287.78,106.18h-2.84l-.86,1.58h-1.51l4.05-7.16h1.63l1.17,7.16H288Zm-.18-1.2-.41-2.88L285.46,105Z"/><path d="M290.54,105.44l1.4-.07a1.61,1.61,0,0,0,.23.9,1.51,1.51,0,0,0,1.19.38,1.72,1.72,0,0,0,1.05-.26.78.78,0,0,0,.32-.62.67.67,0,0,0-.27-.54,4.86,4.86,0,0,0-1-.52,9.64,9.64,0,0,1-1.22-.61,1.87,1.87,0,0,1-.6-.62,1.78,1.78,0,0,1-.22-.91,2,2,0,0,1,.65-1.5,2.77,2.77,0,0,1,1.9-.59,2.93,2.93,0,0,1,2,.59,2.19,2.19,0,0,1,.76,1.57l-1.41.06a1.12,1.12,0,0,0-.38-.78,1.4,1.4,0,0,0-.93-.28,1.38,1.38,0,0,0-.87.22.65.65,0,0,0-.27.54.63.63,0,0,0,.24.51,5.09,5.09,0,0,0,1.06.56,5.85,5.85,0,0,1,1.58.87,1.67,1.67,0,0,1,.5,1.25,2.11,2.11,0,0,1-.75,1.62,3,3,0,0,1-2.09.67,3.78,3.78,0,0,1-1.6-.31,1.88,1.88,0,0,1-.95-.86A2.61,2.61,0,0,1,290.54,105.44Z"/><path d="M301.92,104.56h-2.77l-.67,3.2H297l1.5-7.16H300l-.58,2.76h2.77l.58-2.76h1.47l-1.49,7.16h-1.48Z"/></g></g><g class="f"><g class="f"><path d="M219.38,107.76h-1.47l1.49-7.16h3.18a3.87,3.87,0,0,1,1.28.17,1.48,1.48,0,0,1,.74.62,2.06,2.06,0,0,1,.28,1.08,2.11,2.11,0,0,1-.55,1.51,2.6,2.6,0,0,1-1.65.74,2.9,2.9,0,0,1,.53.67,17.87,17.87,0,0,1,1.1,2.37h-1.59a18.34,18.34,0,0,0-.74-1.89,2.17,2.17,0,0,0-.65-.93,1.3,1.3,0,0,0-.73-.15H220Zm.84-4H221a5.72,5.72,0,0,0,1.57-.14,1.27,1.27,0,0,0,.61-.45,1.09,1.09,0,0,0,.22-.63.66.66,0,0,0-.32-.59,2.09,2.09,0,0,0-.84-.11h-1.62Z"/><path d="M229.79,106.18H227l-.86,1.58h-1.51l4-7.16h1.64l1.16,7.16H230Zm-.19-1.2-.41-2.88L227.46,105Z"/><path d="M236.44,107.76H235l-.26-6-1.14,6h-1.33l1.5-7.16h2.1l.22,5,2.44-5h2.12l-1.5,7.16h-1.34l1.41-5.94Z"/></g></g><g class="f"><g class="f"><path d="M221.34,158.78a5,5,0,0,1,.19-1.34,4.86,4.86,0,0,1,.76-1.64,3.59,3.59,0,0,1,1.29-1.09,3.72,3.72,0,0,1,1.76-.41,2.89,2.89,0,0,1,2.15.83,3,3,0,0,1,.82,2.19,4.91,4.91,0,0,1-.53,2.19,4,4,0,0,1-1.45,1.63,3.82,3.82,0,0,1-2.06.57,3,3,0,0,1-1.68-.45,2.55,2.55,0,0,1-1-1.13A3.44,3.44,0,0,1,221.34,158.78Zm1.45,0a1.81,1.81,0,0,0,.45,1.23,1.54,1.54,0,0,0,1.19.5,1.94,1.94,0,0,0,1.14-.39,2.9,2.9,0,0,0,.91-1.19,3.8,3.8,0,0,0,.36-1.56,1.86,1.86,0,0,0-.46-1.33,1.5,1.5,0,0,0-1.15-.48,2.05,2.05,0,0,0-1.76,1A3.89,3.89,0,0,0,222.79,158.75Z"/><path d="M228.68,161.58l1.5-7.15h1.93c.53,0,.88,0,1,0a3.05,3.05,0,0,1,.79.18,2.31,2.31,0,0,1,.64.38,2.62,2.62,0,0,1,.49.6,2.91,2.91,0,0,1,.32.8,4.32,4.32,0,0,1,.11,1,4.66,4.66,0,0,1-.44,2.06,4.24,4.24,0,0,1-1.11,1.42,3.37,3.37,0,0,1-1.32.61,7.07,7.07,0,0,1-1.42.1Zm1.71-1.15h.75a4.67,4.67,0,0,0,1.17-.1A1.64,1.64,0,0,0,233,160a3.26,3.26,0,0,0,.73-1.06,3.7,3.7,0,0,0,.3-1.55,2.11,2.11,0,0,0-.25-1.15,1.22,1.22,0,0,0-.6-.51,3.62,3.62,0,0,0-.91-.08h-.85Z"/></g></g><g class="f"><g class="f"><path d="M217.9,255.11l1.5-7.16h1.93c.54,0,.88,0,1,0a3,3,0,0,1,.79.18,2.12,2.12,0,0,1,.64.39,2.37,2.37,0,0,1,.49.59,2.73,2.73,0,0,1,.32.8,4.35,4.35,0,0,1,.11,1,4.64,4.64,0,0,1-.44,2.05,3.91,3.91,0,0,1-1.11,1.42,3.23,3.23,0,0,1-1.32.61,6.91,6.91,0,0,1-1.42.11Zm1.71-1.15h.75a5.38,5.38,0,0,0,1.18-.1,1.7,1.7,0,0,0,.66-.38,3,3,0,0,0,.73-1,3.74,3.74,0,0,0,.3-1.56,2.17,2.17,0,0,0-.24-1.14,1.18,1.18,0,0,0-.61-.51,3.1,3.1,0,0,0-.91-.09h-.85Z"/><path d="M227.07,251.39l-1.37-.12a2,2,0,0,1,.82-1.08,2.72,2.72,0,0,1,1.54-.39,2.26,2.26,0,0,1,1.48.4,1.25,1.25,0,0,1,.48,1,2.85,2.85,0,0,1,0,.49c0,.18-.13.64-.29,1.39a7,7,0,0,0-.21,1.3,2.64,2.64,0,0,0,.12.74h-1.36a2.93,2.93,0,0,1-.11-.59,2.24,2.24,0,0,1-.7.53,2,2,0,0,1-.81.18,1.43,1.43,0,0,1-1.06-.42,1.49,1.49,0,0,1-.42-1.09,1.58,1.58,0,0,1,.46-1.19,2.73,2.73,0,0,1,1.65-.53,6.68,6.68,0,0,0,1.33-.2,1.71,1.71,0,0,0,.09-.47.48.48,0,0,0-.18-.38.83.83,0,0,0-.54-.15,1,1,0,0,0-.59.15A.8.8,0,0,0,227.07,251.39Zm1.33,1.3-.34.06a3.2,3.2,0,0,0-1.38.38.55.55,0,0,0-.22.47.53.53,0,0,0,.17.41.65.65,0,0,0,.46.17,1.21,1.21,0,0,0,.6-.15,1.08,1.08,0,0,0,.42-.4,2.4,2.4,0,0,0,.25-.75Z"/><path d="M231,251l.22-1h.68l.17-.83,1.61-1-.38,1.8h.86l-.22,1h-.86l-.45,2.18c-.08.39-.13.61-.13.67a.31.31,0,0,0,.11.25.57.57,0,0,0,.37.09l.46,0-.22,1a3.64,3.64,0,0,1-.74.07,1.62,1.62,0,0,1-1.08-.29,1,1,0,0,1-.34-.79,7.88,7.88,0,0,1,.19-1.1l.43-2.09Z"/><path d="M236,251.39l-1.37-.12a2.07,2.07,0,0,1,.82-1.08,2.72,2.72,0,0,1,1.54-.39,2.26,2.26,0,0,1,1.48.4,1.25,1.25,0,0,1,.48,1,2.85,2.85,0,0,1,0,.49c0,.18-.12.64-.29,1.39a7,7,0,0,0-.21,1.3,2.64,2.64,0,0,0,.12.74h-1.36a2.35,2.35,0,0,1-.1-.59,2.28,2.28,0,0,1-.71.53,2,2,0,0,1-.81.18,1.43,1.43,0,0,1-1.06-.42,1.49,1.49,0,0,1-.42-1.09,1.58,1.58,0,0,1,.46-1.19,2.73,2.73,0,0,1,1.65-.53,6.83,6.83,0,0,0,1.34-.2,2.08,2.08,0,0,0,.08-.47.48.48,0,0,0-.18-.38.82.82,0,0,0-.53-.15,1.07,1.07,0,0,0-.6.15A.8.8,0,0,0,236,251.39Zm1.33,1.3-.34.06a3.1,3.1,0,0,0-1.37.38.53.53,0,0,0-.23.47.57.57,0,0,0,.17.41.66.66,0,0,0,.47.17,1.2,1.2,0,0,0,.59-.15,1.08,1.08,0,0,0,.42-.4,2.4,2.4,0,0,0,.25-.75Z"/></g></g><path class="c" d="M28.83,92.54H84V272.83H28.83Z"/><g class="f"><path d="M47.65,16.69a7.44,7.44,0,0,1,.26-1.87A6.73,6.73,0,0,1,49,12.53,5.07,5.07,0,0,1,50.78,11a5.35,5.35,0,0,1,2.47-.56,4.06,4.06,0,0,1,3,1.15,4.17,4.17,0,0,1,1.14,3.07,6.8,6.8,0,0,1-.74,3.06,5.6,5.6,0,0,1-2,2.29,5.34,5.34,0,0,1-2.89.8,4.09,4.09,0,0,1-2.35-.64A3.62,3.62,0,0,1,48,18.59,4.93,4.93,0,0,1,47.65,16.69Zm2,0a2.48,2.48,0,0,0,.62,1.73,2.14,2.14,0,0,0,1.66.7,2.71,2.71,0,0,0,1.6-.56,4,4,0,0,0,1.27-1.66,5.24,5.24,0,0,0,.51-2.18,2.62,2.62,0,0,0-.64-1.86,2.11,2.11,0,0,0-1.62-.67,2.85,2.85,0,0,0-2.46,1.41A5.43,5.43,0,0,0,49.69,16.65Z"/><path d="M57.82,20.62l2.09-10h2L61.18,14a4,4,0,0,1,1-.59,3.13,3.13,0,0,1,1-.17,2.38,2.38,0,0,1,1.84.77,3.25,3.25,0,0,1,.69,2.24,5.7,5.7,0,0,1-.33,1.92,4.22,4.22,0,0,1-.87,1.52,3.77,3.77,0,0,1-1.14.87,2.89,2.89,0,0,1-1.25.28,2.42,2.42,0,0,1-2.29-1.37l-.26,1.2Zm2.65-3a1.69,1.69,0,0,0,.41,1.19,1.25,1.25,0,0,0,1,.46,1.48,1.48,0,0,0,.94-.36,2.6,2.6,0,0,0,.75-1.13,4.38,4.38,0,0,0,.3-1.58,1.78,1.78,0,0,0-.4-1.21,1.28,1.28,0,0,0-1-.44,1.58,1.58,0,0,0-1.27.68A3.76,3.76,0,0,0,60.47,17.66Z"/><path d="M68,13.36h2l-1.3,6.15a11.69,11.69,0,0,1-.93,3.19,2.11,2.11,0,0,1-1.89.87,4.94,4.94,0,0,1-1.48-.22l.31-1.62a3.87,3.87,0,0,0,.8.11.77.77,0,0,0,.63-.3,7.94,7.94,0,0,0,.63-2.16Zm.57-2.76h2l-.37,1.78h-2Z"/><path d="M77.38,17.6H72.46v.18A1.64,1.64,0,0,0,72.87,19a1.35,1.35,0,0,0,1,.44,1.68,1.68,0,0,0,1.52-1l1.76.29a3.52,3.52,0,0,1-3.3,2.12,3.22,3.22,0,0,1-2.38-.93,3.31,3.31,0,0,1-.91-2.45,4.42,4.42,0,0,1,.83-2.65,3.71,3.71,0,0,1,3.22-1.57,2.77,2.77,0,0,1,2.11.82,3.19,3.19,0,0,1,.79,2.31A5.07,5.07,0,0,1,77.38,17.6Zm-1.65-1.2c0-.08,0-.15,0-.2A1.74,1.74,0,0,0,75.37,15a1.26,1.26,0,0,0-1-.4,1.53,1.53,0,0,0-1.09.46,2.42,2.42,0,0,0-.65,1.35Z"/><path d="M83,17.89l1.91.3a4,4,0,0,1-1.39,1.94,3.6,3.6,0,0,1-2.14.66A2.9,2.9,0,0,1,79.2,20a3.07,3.07,0,0,1-.82-2.27,5.34,5.34,0,0,1,.49-2.24,3.86,3.86,0,0,1,1.49-1.66,4.1,4.1,0,0,1,2.17-.6,3,3,0,0,1,2,.67,2.52,2.52,0,0,1,.86,1.76l-1.86.2a1.44,1.44,0,0,0-.37-.89,1.1,1.1,0,0,0-.8-.29,1.6,1.6,0,0,0-1.06.42,2.71,2.71,0,0,0-.76,1.27,5.48,5.48,0,0,0-.26,1.58,1.42,1.42,0,0,0,.32,1,1,1,0,0,0,.78.35,1.43,1.43,0,0,0,.91-.34A2.21,2.21,0,0,0,83,17.89Z"/><path d="M86.38,14.82l.3-1.46h1l.24-1.16,2.25-1.36-.53,2.52h1.2l-.3,1.46H89.29l-.63,3a7.57,7.57,0,0,0-.17.94.42.42,0,0,0,.14.35.78.78,0,0,0,.52.13l.65-.05-.31,1.46a5.1,5.1,0,0,1-1,.1,2.31,2.31,0,0,1-1.51-.4,1.4,1.4,0,0,1-.47-1.11,10,10,0,0,1,.25-1.54l.61-2.92Z"/><path d="M94.49,20.62l2.1-10h2.7q1.13,0,1.44,0a4.11,4.11,0,0,1,1.11.26,2.88,2.88,0,0,1,.89.53,3.28,3.28,0,0,1,.69.83,4.52,4.52,0,0,1,.45,1.12,6,6,0,0,1,.15,1.38,6.48,6.48,0,0,1-.61,2.88,5.77,5.77,0,0,1-1.56,2,4.73,4.73,0,0,1-1.85.85,9.52,9.52,0,0,1-2,.15ZM96.89,19h1a7.07,7.07,0,0,0,1.65-.14,2.29,2.29,0,0,0,.93-.53,4.43,4.43,0,0,0,1-1.47,5.4,5.4,0,0,0,.41-2.18,3,3,0,0,0-.34-1.6,1.64,1.64,0,0,0-.85-.71,4.11,4.11,0,0,0-1.27-.13H98.3Z"/><path d="M106.07,13.36h2l-1.52,7.26h-2Zm.57-2.76h2l-.37,1.78h-2Z"/><path d="M113.36,17.89l1.91.3a4,4,0,0,1-1.4,1.94,3.55,3.55,0,0,1-2.14.66,2.93,2.93,0,0,1-2.2-.83,3.11,3.11,0,0,1-.81-2.27,5.19,5.19,0,0,1,.49-2.24,3.86,3.86,0,0,1,1.49-1.66,4.1,4.1,0,0,1,2.17-.6,3,3,0,0,1,2,.67,2.52,2.52,0,0,1,.86,1.76l-1.86.2a1.39,1.39,0,0,0-.38-.89,1.07,1.07,0,0,0-.79-.29,1.6,1.6,0,0,0-1.06.42,2.71,2.71,0,0,0-.76,1.27,5.48,5.48,0,0,0-.26,1.58,1.42,1.42,0,0,0,.31,1,1,1,0,0,0,.79.35,1.45,1.45,0,0,0,.91-.34A2.21,2.21,0,0,0,113.36,17.89Z"/><path d="M116.72,14.82l.3-1.46h1l.24-1.16,2.24-1.36-.52,2.52h1.19l-.3,1.46h-1.2l-.64,3c-.11.55-.17.86-.17.94a.43.43,0,0,0,.15.35.76.76,0,0,0,.52.13l.65-.05-.31,1.46a5.1,5.1,0,0,1-1,.1,2.29,2.29,0,0,1-1.51-.4,1.37,1.37,0,0,1-.47-1.11,10,10,0,0,1,.25-1.54l.61-2.92Z"/><path d="M122.41,13.36h2l-1.52,7.26h-2ZM123,10.6h2l-.37,1.78h-2Z"/><path d="M125.06,17.61a4.48,4.48,0,0,1,1.14-3.22,3.94,3.94,0,0,1,3-1.2,3.39,3.39,0,0,1,2.51.89,3.17,3.17,0,0,1,.9,2.38,4.49,4.49,0,0,1-1.12,3.05,3.83,3.83,0,0,1-3,1.28,3.94,3.94,0,0,1-1.82-.41,2.67,2.67,0,0,1-1.19-1.16A3.45,3.45,0,0,1,125.06,17.61Zm5.6-1.41a1.53,1.53,0,0,0-.41-1.11,1.39,1.39,0,0,0-1.05-.42,1.78,1.78,0,0,0-1.13.39,2.46,2.46,0,0,0-.76,1.14,4.13,4.13,0,0,0-.28,1.38,1.73,1.73,0,0,0,.43,1.24,1.4,1.4,0,0,0,1.06.45,1.68,1.68,0,0,0,1.36-.69A3.68,3.68,0,0,0,130.66,16.2Z"/><path d="M134.87,13.36h1.86l-.19.94a5.2,5.2,0,0,1,1.3-.85,3.12,3.12,0,0,1,1.28-.26,1.91,1.91,0,0,1,1.41.51,1.82,1.82,0,0,1,.52,1.36,8.74,8.74,0,0,1-.23,1.45L140,20.62h-2l.86-4.12a11.05,11.05,0,0,0,.19-1.1.81.81,0,0,0-.22-.59.84.84,0,0,0-.62-.22,1.74,1.74,0,0,0-1,.36,2.5,2.5,0,0,0-.83,1,8.32,8.32,0,0,0-.49,1.73l-.62,3h-2Z"/><path d="M144.65,15.42l-1.91-.17a2.84,2.84,0,0,1,1.14-1.51,3.8,3.8,0,0,1,2.16-.55,3.23,3.23,0,0,1,2.08.56,1.77,1.77,0,0,1,.67,1.38,4.41,4.41,0,0,1-.06.7c0,.24-.18.89-.41,1.94a10.2,10.2,0,0,0-.29,1.82,3.74,3.74,0,0,0,.17,1h-1.91a3.7,3.7,0,0,1-.14-.82,3,3,0,0,1-1,.73,2.59,2.59,0,0,1-1.13.26,2,2,0,0,1-1.49-.59,2.07,2.07,0,0,1-.59-1.52A2.2,2.2,0,0,1,142.6,17a3.68,3.68,0,0,1,2.3-.75,10.23,10.23,0,0,0,1.88-.28,2.57,2.57,0,0,0,.12-.66.69.69,0,0,0-.25-.53,1.17,1.17,0,0,0-.76-.21,1.38,1.38,0,0,0-.83.22A1,1,0,0,0,144.65,15.42Zm1.87,1.82-.48.09a4.48,4.48,0,0,0-1.92.51.79.79,0,0,0-.32.67.75.75,0,0,0,.24.57.9.9,0,0,0,.65.24,1.74,1.74,0,0,0,.84-.21,1.52,1.52,0,0,0,.59-.56,3.77,3.77,0,0,0,.34-1.05Z"/><path d="M151.08,13.36h1.83l-.3,1.41a2.83,2.83,0,0,1,2.23-1.58,2.25,2.25,0,0,1,.9.21L155,15a1.5,1.5,0,0,0-.56-.1,1.77,1.77,0,0,0-1,.38,2.63,2.63,0,0,0-.82,1,9.71,9.71,0,0,0-.58,2l-.48,2.28h-2Z"/><path d="M155.72,13.36h2l.49,3.62q.18,1.39.21,1.95a15.13,15.13,0,0,1,1.05-2.35l1.74-3.22h2.07l-4.48,8a12.13,12.13,0,0,1-.87,1.39,2.32,2.32,0,0,1-.77.62,2.38,2.38,0,0,1-1.07.23,5.52,5.52,0,0,1-1.41-.22l.17-1.47a2.49,2.49,0,0,0,.7.11c.6,0,1.09-.46,1.48-1.37Z"/><path d="M172.57,20.62h-2l-.36-8.37-1.59,8.37H166.8l2.09-10h2.94l.31,7,3.42-7h3l-2.1,10h-1.88l2-8.31Z"/><path d="M185.52,17.6H180.6c0,.08,0,.14,0,.18A1.65,1.65,0,0,0,181,19a1.33,1.33,0,0,0,1,.44,1.69,1.69,0,0,0,1.52-1l1.76.29a3.72,3.72,0,0,1-1.37,1.59,3.66,3.66,0,0,1-1.93.53,3.2,3.2,0,0,1-2.38-.93,3.31,3.31,0,0,1-.91-2.45,4.48,4.48,0,0,1,.82-2.65,3.73,3.73,0,0,1,3.22-1.57,2.78,2.78,0,0,1,2.12.82,3.19,3.19,0,0,1,.79,2.31A5.58,5.58,0,0,1,185.52,17.6Zm-1.65-1.2v-.2a1.78,1.78,0,0,0-.36-1.21,1.26,1.26,0,0,0-1-.4,1.53,1.53,0,0,0-1.09.46,2.42,2.42,0,0,0-.65,1.35Z"/><path d="M187.7,13.36h1.84l-.18.88a3.23,3.23,0,0,1,2.27-1.05,2,2,0,0,1,1.26.34,1.51,1.51,0,0,1,.57.94,2.88,2.88,0,0,1,1.08-.91,3.07,3.07,0,0,1,1.46-.37,1.9,1.9,0,0,1,1.36.46,1.63,1.63,0,0,1,.48,1.23,7.07,7.07,0,0,1-.19,1.3l-.93,4.44h-2l.93-4.44c.11-.55.17-.87.17-.94a.65.65,0,0,0-.18-.48.79.79,0,0,0-.55-.17,1.64,1.64,0,0,0-1.3.77,5.14,5.14,0,0,0-.71,2l-.69,3.29h-2l.92-4.39a5.84,5.84,0,0,0,.16-1,.62.62,0,0,0-.2-.47.72.72,0,0,0-.53-.19,1.34,1.34,0,0,0-.67.19,2.12,2.12,0,0,0-.6.53,3.28,3.28,0,0,0-.44.86c0,.16-.14.53-.26,1.11l-.7,3.34h-2Z"/><path d="M199,17.61a4.47,4.47,0,0,1,1.13-3.22,3.94,3.94,0,0,1,3-1.2,3.39,3.39,0,0,1,2.51.89,3.17,3.17,0,0,1,.91,2.38,4.5,4.5,0,0,1-1.13,3.05,3.83,3.83,0,0,1-3,1.28,3.94,3.94,0,0,1-1.82-.41,2.65,2.65,0,0,1-1.18-1.16A3.45,3.45,0,0,1,199,17.61Zm5.59-1.41a1.53,1.53,0,0,0-.41-1.11,1.39,1.39,0,0,0-1-.42,1.78,1.78,0,0,0-1.13.39,2.54,2.54,0,0,0-.76,1.14,4.13,4.13,0,0,0-.28,1.38,1.73,1.73,0,0,0,.43,1.24,1.4,1.4,0,0,0,1.06.45,1.68,1.68,0,0,0,1.36-.69A3.68,3.68,0,0,0,204.57,16.2Z"/><path d="M208.65,13.36h1.83l-.29,1.41a2.8,2.8,0,0,1,2.22-1.58,2.34,2.34,0,0,1,.91.21L212.57,15a1.56,1.56,0,0,0-.57-.1,1.77,1.77,0,0,0-1,.38,2.63,2.63,0,0,0-.82,1,10.38,10.38,0,0,0-.58,2l-.48,2.28h-2Z"/><path d="M213.3,13.36h1.95l.49,3.62q.19,1.39.21,1.95A15.13,15.13,0,0,1,217,16.58l1.74-3.22h2.08l-4.49,8a12.13,12.13,0,0,1-.87,1.39,2.25,2.25,0,0,1-1.84.85,5.45,5.45,0,0,1-1.4-.22l.17-1.47a2.37,2.37,0,0,0,.69.11c.6,0,1.09-.46,1.48-1.37Z"/><path d="M224.38,20.62l2.09-10h7.43l-.35,1.67h-5.36l-.48,2.28h5.19l-.35,1.67h-5.19L226.73,19h5.83l-.35,1.67Z"/><path d="M233.45,18.59l1.9-.3a1.88,1.88,0,0,0,.63.85,1.79,1.79,0,0,0,1,.25,1.77,1.77,0,0,0,1.08-.3.62.62,0,0,0,.28-.5.53.53,0,0,0-.15-.36,2.4,2.4,0,0,0-.81-.36,9.31,9.31,0,0,1-2.2-.93,1.72,1.72,0,0,1-.66-1.4,2,2,0,0,1,.64-1.48A4.57,4.57,0,0,1,240,13.7a2.25,2.25,0,0,1,.91,1.39l-1.82.31a1.1,1.1,0,0,0-.46-.59,2,2,0,0,0-1.05-.27,1.47,1.47,0,0,0-.89.21.57.57,0,0,0-.27.47.52.52,0,0,0,.28.45,6.43,6.43,0,0,0,1.1.38,6.22,6.22,0,0,1,1.92.82,1.75,1.75,0,0,1,.68,1.37,2.29,2.29,0,0,1-.87,1.79,3.58,3.58,0,0,1-2.45.76,4.32,4.32,0,0,1-2.43-.58A2.81,2.81,0,0,1,233.45,18.59Z"/><path d="M242,14.82l.3-1.46h1l.24-1.16,2.25-1.36-.53,2.52h1.2l-.3,1.46h-1.21l-.63,3a7.57,7.57,0,0,0-.17.94.42.42,0,0,0,.14.35.78.78,0,0,0,.52.13l.65-.05-.31,1.46a5.1,5.1,0,0,1-1,.1,2.31,2.31,0,0,1-1.51-.4,1.4,1.4,0,0,1-.47-1.11,10,10,0,0,1,.25-1.54l.61-2.92Z"/><path d="M247.67,13.36h2l-1.52,7.26h-2Zm.57-2.76h2l-.37,1.78h-2Z"/><path d="M251.5,13.36h1.84l-.18.88a3.23,3.23,0,0,1,2.27-1.05,2,2,0,0,1,1.26.34,1.51,1.51,0,0,1,.57.94,2.88,2.88,0,0,1,1.08-.91,3.07,3.07,0,0,1,1.46-.37,1.9,1.9,0,0,1,1.36.46,1.63,1.63,0,0,1,.48,1.23,7.07,7.07,0,0,1-.19,1.3l-.93,4.44h-2l.93-4.44c.11-.55.17-.87.17-.94a.65.65,0,0,0-.18-.48.8.8,0,0,0-.55-.17,1.64,1.64,0,0,0-1.3.77,5.14,5.14,0,0,0-.71,2l-.69,3.29h-2l.92-4.39a5.84,5.84,0,0,0,.16-1,.62.62,0,0,0-.2-.47.72.72,0,0,0-.53-.19,1.34,1.34,0,0,0-.67.19,2,2,0,0,0-.6.53,3.28,3.28,0,0,0-.44.86c-.05.16-.14.53-.26,1.11l-.7,3.34h-2Z"/><path d="M265.26,15.42l-1.92-.17a2.86,2.86,0,0,1,1.15-1.51,3.76,3.76,0,0,1,2.16-.55,3.2,3.2,0,0,1,2.07.56,1.74,1.74,0,0,1,.67,1.38,4.41,4.41,0,0,1-.06.7c0,.24-.17.89-.4,1.94a10.2,10.2,0,0,0-.29,1.82,4.11,4.11,0,0,0,.16,1h-1.9a3.71,3.71,0,0,1-.15-.82,2.83,2.83,0,0,1-1,.73,2.55,2.55,0,0,1-1.13.26,2,2,0,0,1-2.07-2.11A2.19,2.19,0,0,1,263.2,17a3.69,3.69,0,0,1,2.31-.75,10.08,10.08,0,0,0,1.87-.28,2.68,2.68,0,0,0,.13-.66.67.67,0,0,0-.26-.53,1.16,1.16,0,0,0-.75-.21,1.36,1.36,0,0,0-.83.22A1,1,0,0,0,265.26,15.42Zm1.86,1.82-.47.09a4.54,4.54,0,0,0-1.93.51.82.82,0,0,0-.32.67.72.72,0,0,0,.25.57.88.88,0,0,0,.65.24,1.73,1.73,0,0,0,.83-.21,1.45,1.45,0,0,0,.59-.56,3.73,3.73,0,0,0,.35-1.05Z"/><path d="M270.77,14.82l.3-1.46H272l.24-1.16,2.25-1.36L274,13.36h1.19l-.3,1.46h-1.2l-.64,3c-.11.55-.17.86-.17.94a.43.43,0,0,0,.15.35.74.74,0,0,0,.52.13l.64-.05-.3,1.46a5.16,5.16,0,0,1-1,.1,2.28,2.28,0,0,1-1.51-.4,1.37,1.37,0,0,1-.47-1.11,10,10,0,0,1,.25-1.54l.61-2.92Z"/><path d="M276.45,13.36h2l-1.52,7.26h-2ZM277,10.6h2l-.37,1.78h-2Z"/><path d="M279.11,17.61a4.48,4.48,0,0,1,1.14-3.22,3.94,3.94,0,0,1,3-1.2,3.39,3.39,0,0,1,2.51.89,3.17,3.17,0,0,1,.9,2.38,4.49,4.49,0,0,1-1.12,3.05,3.86,3.86,0,0,1-3,1.28,3.89,3.89,0,0,1-1.81-.41,2.67,2.67,0,0,1-1.19-1.16A3.45,3.45,0,0,1,279.11,17.61Zm5.6-1.41a1.53,1.53,0,0,0-.41-1.11,1.39,1.39,0,0,0-1.05-.42,1.78,1.78,0,0,0-1.13.39,2.46,2.46,0,0,0-.76,1.14,3.9,3.9,0,0,0-.28,1.38,1.73,1.73,0,0,0,.43,1.24,1.38,1.38,0,0,0,1.06.45,1.68,1.68,0,0,0,1.36-.69A3.68,3.68,0,0,0,284.71,16.2Z"/><path d="M288.92,13.36h1.86l-.19.94a5.2,5.2,0,0,1,1.3-.85,3.12,3.12,0,0,1,1.28-.26,1.92,1.92,0,0,1,1.41.51,1.86,1.86,0,0,1,.52,1.36,8.74,8.74,0,0,1-.23,1.45L294,20.62h-2l.87-4.12a11.05,11.05,0,0,0,.19-1.1.78.78,0,0,0-.23-.59.8.8,0,0,0-.61-.22,1.74,1.74,0,0,0-1,.36,2.5,2.5,0,0,0-.83,1,7.73,7.73,0,0,0-.49,1.73l-.62,3h-2Z"/></g><path class="d" d="M34.5,242.33H79v25.84H34.5Z"/><path class="e" d="M89.42,272.83V92.54h53.41V272.83Z"/><path class="d" d="M94.56,172.54H137.5v95.84H94.56Z"/><g class="f"><g class="f"><path d="M237.56,67H235.7l.16-.78a3.51,3.51,0,0,1-1.05.73,2.86,2.86,0,0,1-1.16.22,2.37,2.37,0,0,1-1.83-.76,3.29,3.29,0,0,1-.7-2.28,5.42,5.42,0,0,1,1-3.15,3,3,0,0,1,2.61-1.41,2.43,2.43,0,0,1,2.19,1.16l.79-3.75h2ZM233,64a1.79,1.79,0,0,0,.39,1.22,1.24,1.24,0,0,0,1,.43,1.59,1.59,0,0,0,1-.36,2.55,2.55,0,0,0,.74-1.12,4.27,4.27,0,0,0,.28-1.44,1.86,1.86,0,0,0-.43-1.27,1.25,1.25,0,0,0-1-.49,1.62,1.62,0,0,0-1.41,1A4.06,4.06,0,0,0,233,64Z"/><path d="M240,59.69h2l.49,3.62c.12.93.19,1.58.2,2a16.26,16.26,0,0,1,1.06-2.35l1.73-3.22h2.08l-4.48,8a10.53,10.53,0,0,1-.87,1.39,2.29,2.29,0,0,1-.77.62,2.39,2.39,0,0,1-1.08.23,5.11,5.11,0,0,1-1.4-.22l.17-1.46a2.45,2.45,0,0,0,.69.1c.6,0,1.1-.46,1.49-1.37Z"/><path d="M248.73,59.69h1.86l-.19,1a5.13,5.13,0,0,1,1.31-.86,3.21,3.21,0,0,1,1.27-.26,1.91,1.91,0,0,1,1.41.51,1.84,1.84,0,0,1,.52,1.37,8.83,8.83,0,0,1-.23,1.44L253.83,67h-2l.86-4.12a10.56,10.56,0,0,0,.19-1.1.81.81,0,0,0-.22-.59.88.88,0,0,0-.62-.22,1.69,1.69,0,0,0-1,.37,2.55,2.55,0,0,0-.83,1A8.53,8.53,0,0,0,249.8,64l-.62,3h-2Z"/><path d="M258.51,61.75l-1.91-.16a2.83,2.83,0,0,1,1.14-1.52,3.8,3.8,0,0,1,2.16-.55,3.17,3.17,0,0,1,2.08.57,1.74,1.74,0,0,1,.67,1.37,4.41,4.41,0,0,1-.06.7c0,.25-.18.89-.41,1.94a10.2,10.2,0,0,0-.29,1.82,3.69,3.69,0,0,0,.17,1h-1.91a3.7,3.7,0,0,1-.14-.82,3.06,3.06,0,0,1-1,.74,2.72,2.72,0,0,1-1.13.25,2,2,0,0,1-1.49-.59,2.07,2.07,0,0,1-.59-1.52,2.21,2.21,0,0,1,.65-1.66,3.81,3.81,0,0,1,2.3-.75,9.4,9.4,0,0,0,1.88-.28,2.5,2.5,0,0,0,.12-.66.67.67,0,0,0-.25-.52,1.11,1.11,0,0,0-.76-.22,1.46,1.46,0,0,0-.83.22A1.06,1.06,0,0,0,258.51,61.75Zm1.87,1.82-.48.09a4.44,4.44,0,0,0-1.92.52.76.76,0,0,0-.32.66.78.78,0,0,0,.24.58.89.89,0,0,0,.65.23,1.74,1.74,0,0,0,.84-.21,1.52,1.52,0,0,0,.59-.56,3.66,3.66,0,0,0,.34-1Z"/><path d="M265,59.69h1.85l-.19.89a3.24,3.24,0,0,1,2.27-1.06,2.11,2.11,0,0,1,1.27.34,1.58,1.58,0,0,1,.57,1,2.9,2.9,0,0,1,1.08-.92,3.16,3.16,0,0,1,1.46-.37,1.86,1.86,0,0,1,1.35.47,1.6,1.6,0,0,1,.49,1.23,8.41,8.41,0,0,1-.19,1.3L274,67h-2l.93-4.43a9.32,9.32,0,0,0,.18-1,.62.62,0,0,0-.19-.47.73.73,0,0,0-.54-.18,1.61,1.61,0,0,0-1.3.78,5.23,5.23,0,0,0-.72,2L269.71,67h-2l.92-4.39a7.2,7.2,0,0,0,.16-1,.62.62,0,0,0-.2-.47.77.77,0,0,0-.54-.19,1.35,1.35,0,0,0-.66.2,1.85,1.85,0,0,0-.6.52,3.14,3.14,0,0,0-.44.86c-.05.17-.14.54-.26,1.12l-.7,3.33h-2Z"/><path d="M277.49,59.69h2L277.94,67h-2Zm.58-2.76h2l-.37,1.78h-2Z"/><path d="M284.79,64.22l1.9.31a4,4,0,0,1-1.39,1.93,3.6,3.6,0,0,1-2.14.66,3,3,0,0,1-2.2-.82,3.13,3.13,0,0,1-.81-2.28,5.23,5.23,0,0,1,.49-2.24,3.76,3.76,0,0,1,1.48-1.65,4,4,0,0,1,2.17-.61,3.06,3.06,0,0,1,2.06.67,2.59,2.59,0,0,1,.86,1.77l-1.87.19a1.39,1.39,0,0,0-.37-.89,1.12,1.12,0,0,0-.8-.29,1.57,1.57,0,0,0-1.06.43,2.59,2.59,0,0,0-.75,1.26,5.25,5.25,0,0,0-.27,1.59,1.45,1.45,0,0,0,.32,1,1,1,0,0,0,.78.35,1.45,1.45,0,0,0,.91-.35A2.17,2.17,0,0,0,284.79,64.22Z"/></g></g><g class="f"><g class="f"><path d="M67.47,64.92l1.91-.3a1.75,1.75,0,0,0,.62.85,1.83,1.83,0,0,0,1,.25,1.74,1.74,0,0,0,1.07-.3.6.6,0,0,0,.28-.5.52.52,0,0,0-.14-.35,2.35,2.35,0,0,0-.81-.37,8.81,8.81,0,0,1-2.21-.93,1.72,1.72,0,0,1-.66-1.4,2,2,0,0,1,.64-1.48,3.69,3.69,0,0,1,2.66-.87A3.64,3.64,0,0,1,74,60a2.28,2.28,0,0,1,.91,1.39l-1.81.32a1.14,1.14,0,0,0-.46-.6,2,2,0,0,0-1.06-.26,1.45,1.45,0,0,0-.88.2.59.59,0,0,0-.27.47.51.51,0,0,0,.27.45,6.07,6.07,0,0,0,1.1.39,5.57,5.57,0,0,1,1.92.82,1.7,1.7,0,0,1,.69,1.36,2.33,2.33,0,0,1-.87,1.8,3.64,3.64,0,0,1-2.45.75,4.37,4.37,0,0,1-2.43-.57A2.92,2.92,0,0,1,67.47,64.92Z"/><path d="M76,61.15l.3-1.46h1l.24-1.16,2.25-1.35-.52,2.51h1.19l-.3,1.46h-1.2l-.64,3c-.11.55-.17.87-.17.94a.49.49,0,0,0,.14.36.84.84,0,0,0,.52.12l.65,0L79.12,67a5.16,5.16,0,0,1-1,.1,2.28,2.28,0,0,1-1.51-.4,1.35,1.35,0,0,1-.48-1.11,10.51,10.51,0,0,1,.26-1.54L77,61.15Z"/><path d="M82.94,61.75,81,61.59a2.85,2.85,0,0,1,1.15-1.52,3.76,3.76,0,0,1,2.16-.55,3.16,3.16,0,0,1,2.07.57,1.71,1.71,0,0,1,.67,1.37,4.41,4.41,0,0,1-.06.7c0,.25-.17.89-.4,1.94a9.33,9.33,0,0,0-.29,1.82,3.65,3.65,0,0,0,.16,1H84.58a4.39,4.39,0,0,1-.14-.82,3.06,3.06,0,0,1-1,.74,2.69,2.69,0,0,1-1.13.25,2,2,0,0,1-1.49-.59A2.07,2.07,0,0,1,80.24,65a2.21,2.21,0,0,1,.65-1.66,3.82,3.82,0,0,1,2.31-.75,9.26,9.26,0,0,0,1.87-.28,2.5,2.5,0,0,0,.12-.66.64.64,0,0,0-.25-.52,1.1,1.1,0,0,0-.75-.22,1.43,1.43,0,0,0-.83.22A1.13,1.13,0,0,0,82.94,61.75Zm1.87,1.82-.47.09a4.45,4.45,0,0,0-1.93.52.79.79,0,0,0-.32.66.76.76,0,0,0,.25.58.88.88,0,0,0,.65.23,1.73,1.73,0,0,0,.83-.21,1.52,1.52,0,0,0,.59-.56,3.62,3.62,0,0,0,.35-1Z"/><path d="M88.45,61.15l.3-1.46h1L90,58.53l2.25-1.35-.53,2.51h1.2l-.3,1.46h-1.2l-.64,3c-.11.55-.17.87-.17.94a.49.49,0,0,0,.14.36.84.84,0,0,0,.52.12l.65,0L91.56,67a5,5,0,0,1-1,.1,2.32,2.32,0,0,1-1.52-.4,1.37,1.37,0,0,1-.47-1.11,10.51,10.51,0,0,1,.26-1.54l.6-2.92Z"/><path d="M94.14,59.69h2L94.59,67h-2Zm.58-2.76h2l-.37,1.78h-2Z"/><path d="M101.44,64.22l1.9.31A4,4,0,0,1,102,66.46a3.6,3.6,0,0,1-2.14.66,2.93,2.93,0,0,1-2.2-.82A3.09,3.09,0,0,1,96.79,64a5.24,5.24,0,0,1,.5-2.24,3.7,3.7,0,0,1,1.48-1.65,4,4,0,0,1,2.17-.61,3,3,0,0,1,2,.67,2.6,2.6,0,0,1,.87,1.77l-1.87.19a1.44,1.44,0,0,0-.37-.89,1.14,1.14,0,0,0-.8-.29,1.57,1.57,0,0,0-1.06.43A2.59,2.59,0,0,0,99,62.66a5.25,5.25,0,0,0-.27,1.59,1.45,1.45,0,0,0,.32,1,1,1,0,0,0,.78.35,1.45,1.45,0,0,0,.91-.35A2.25,2.25,0,0,0,101.44,64.22Z"/></g></g><g class="f"><g class="f"><path d="M99.82,107.9l1.49-7.16h5l-.25,1.2h-3.53l-.37,1.72h3.47l-.25,1.19h-3.47l-.63,3.05Z"/><path d="M106,107.9l1.5-7.16H109l-1.24,6h3.64l-.25,1.2Z"/><path d="M116.74,106.32H113.9L113,107.9h-1.51l4-7.16h1.63l1.17,7.16H117Zm-.18-1.19-.42-2.88-1.72,2.88Z"/><path d="M119.5,105.58l1.4-.07a1.58,1.58,0,0,0,.23.9,1.48,1.48,0,0,0,1.19.38,1.66,1.66,0,0,0,1.05-.26.78.78,0,0,0,.32-.62.68.68,0,0,0-.27-.54,4.86,4.86,0,0,0-1-.52,9.89,9.89,0,0,1-1.22-.6,1.72,1.72,0,0,1-.6-.63,1.77,1.77,0,0,1-.22-.9,1.94,1.94,0,0,1,.65-1.5,2.72,2.72,0,0,1,1.9-.6,2.93,2.93,0,0,1,2,.59,2.19,2.19,0,0,1,.76,1.57l-1.42.07a1.1,1.1,0,0,0-.37-.79,1.39,1.39,0,0,0-.93-.27,1.44,1.44,0,0,0-.88.21.7.7,0,0,0-.26.54.63.63,0,0,0,.24.51,4.64,4.64,0,0,0,1.06.56,5.85,5.85,0,0,1,1.57.87,1.64,1.64,0,0,1,.51,1.25,2.11,2.11,0,0,1-.75,1.62,3,3,0,0,1-2.09.67,3.78,3.78,0,0,1-1.6-.31,1.83,1.83,0,0,1-.95-.86A2.5,2.5,0,0,1,119.5,105.58Z"/><path d="M130.88,104.7h-2.77l-.67,3.2H126l1.5-7.16h1.47l-.58,2.77h2.77l.58-2.77h1.47l-1.49,7.16h-1.48Z"/></g></g><g class="f"><g class="f"><path d="M48.34,107.9H46.86l1.5-7.16h3.18a3.91,3.91,0,0,1,1.28.17,1.48,1.48,0,0,1,.74.62,2.08,2.08,0,0,1,.28,1.09,2.13,2.13,0,0,1-.55,1.5,2.65,2.65,0,0,1-1.66.74,2.92,2.92,0,0,1,.54.67,18.5,18.5,0,0,1,1.1,2.37H51.68c-.12-.4-.37-1-.74-1.89a2.26,2.26,0,0,0-.65-.93,1.32,1.32,0,0,0-.73-.14H49Zm.84-4H50a5.37,5.37,0,0,0,1.58-.14,1.26,1.26,0,0,0,.61-.44,1.15,1.15,0,0,0,.22-.64.64.64,0,0,0-.32-.58,1.9,1.9,0,0,0-.85-.12H49.58Z"/><path d="M58.74,106.32H55.91l-.86,1.58H53.53l4-7.16h1.64l1.16,7.16H59Zm-.18-1.19-.41-2.88-1.73,2.88Z"/><path d="M65.39,107.9H64l-.26-6-1.14,6H61.27l1.5-7.16h2.1l.22,5,2.44-5h2.12l-1.5,7.16H66.81L68.22,102Z"/></g></g><g class="f"><g class="f"><path d="M109.8,184.59a5.42,5.42,0,0,1,1-3,3.66,3.66,0,0,1,3-1.5A2.9,2.9,0,0,1,116,181a3,3,0,0,1,.82,2.18,4.8,4.8,0,0,1-.54,2.2,4,4,0,0,1-1.44,1.63,3.83,3.83,0,0,1-2.07.57,2.93,2.93,0,0,1-1.68-.46,2.51,2.51,0,0,1-1-1.12A3.45,3.45,0,0,1,109.8,184.59Zm1.45,0a1.77,1.77,0,0,0,.45,1.24,1.53,1.53,0,0,0,1.18.5,1.91,1.91,0,0,0,1.15-.4,2.84,2.84,0,0,0,.91-1.19,3.76,3.76,0,0,0,.36-1.55,1.82,1.82,0,0,0-.46-1.33,1.52,1.52,0,0,0-1.15-.48,2.05,2.05,0,0,0-1.76,1A3.86,3.86,0,0,0,111.25,184.56Z"/><path d="M117.14,187.4l1.5-7.16h1.93c.53,0,.88,0,1,0a3.05,3.05,0,0,1,.79.18,2.25,2.25,0,0,1,.63.38,2.61,2.61,0,0,1,.5.59,3.18,3.18,0,0,1,.32.8,4.35,4.35,0,0,1,.11,1,4.61,4.61,0,0,1-.44,2,4.18,4.18,0,0,1-1.11,1.43,3.48,3.48,0,0,1-1.33.6,6.73,6.73,0,0,1-1.41.11Zm1.71-1.15h.75a4.67,4.67,0,0,0,1.17-.1,1.56,1.56,0,0,0,.67-.38,3.11,3.11,0,0,0,.73-1.05,3.73,3.73,0,0,0,.3-1.55,2.11,2.11,0,0,0-.25-1.15,1.22,1.22,0,0,0-.6-.51,3.1,3.1,0,0,0-.91-.09h-.85Z"/></g></g><g class="f"><g class="f"><path d="M46.86,255.25l1.5-7.16h1.93c.53,0,.88,0,1,0a3.05,3.05,0,0,1,.79.18,2.46,2.46,0,0,1,.64.38,2.37,2.37,0,0,1,.49.59,3,3,0,0,1,.32.8,4.35,4.35,0,0,1,.11,1,4.61,4.61,0,0,1-.44,2.05,4.18,4.18,0,0,1-1.11,1.43,3.41,3.41,0,0,1-1.33.6,6.73,6.73,0,0,1-1.41.11Zm1.71-1.15h.75a5.21,5.21,0,0,0,1.17-.1,1.56,1.56,0,0,0,.67-.38,3.11,3.11,0,0,0,.73-1.05,3.73,3.73,0,0,0,.3-1.55,2.11,2.11,0,0,0-.25-1.15,1.22,1.22,0,0,0-.6-.51,3.1,3.1,0,0,0-.91-.09h-.85Z"/><path d="M56,251.53l-1.36-.11a2,2,0,0,1,.81-1.09,2.76,2.76,0,0,1,1.55-.39,2.25,2.25,0,0,1,1.48.41,1.22,1.22,0,0,1,.48,1,4.57,4.57,0,0,1,0,.5c0,.17-.13.64-.29,1.38a7.08,7.08,0,0,0-.21,1.3,2.64,2.64,0,0,0,.12.74H57.2a2.8,2.8,0,0,1-.11-.59,2.1,2.1,0,0,1-.7.53,2,2,0,0,1-.81.18,1.42,1.42,0,0,1-1.06-.42,1.47,1.47,0,0,1-.42-1.09,1.54,1.54,0,0,1,.46-1.18,2.61,2.61,0,0,1,1.64-.54,6.69,6.69,0,0,0,1.34-.2,1.71,1.71,0,0,0,.09-.47.49.49,0,0,0-.18-.38.83.83,0,0,0-.54-.15.94.94,0,0,0-.59.16A.79.79,0,0,0,56,251.53Zm1.34,1.3a2,2,0,0,1-.34.07,3.09,3.09,0,0,0-1.38.37.57.57,0,0,0-.23.47.54.54,0,0,0,.18.41.61.61,0,0,0,.46.17,1.27,1.27,0,0,0,.6-.15,1,1,0,0,0,.42-.4,2.69,2.69,0,0,0,.25-.75Z"/><path d="M60,251.1l.21-1h.69l.17-.83,1.61-1-.38,1.79h.85l-.21,1H62l-.45,2.18a5.61,5.61,0,0,0-.13.67.31.31,0,0,0,.11.25.55.55,0,0,0,.37.09l.46,0-.22,1a3.64,3.64,0,0,1-.74.07,1.65,1.65,0,0,1-1.08-.28,1,1,0,0,1-.34-.8,7.5,7.5,0,0,1,.18-1.1l.44-2.09Z"/><path d="M64.92,251.53l-1.37-.11a2,2,0,0,1,.82-1.09,2.72,2.72,0,0,1,1.54-.39,2.25,2.25,0,0,1,1.48.41,1.22,1.22,0,0,1,.48,1,3,3,0,0,1,0,.5c0,.17-.13.64-.29,1.38a7.08,7.08,0,0,0-.21,1.3,2.64,2.64,0,0,0,.12.74H66.09a2.8,2.8,0,0,1-.11-.59,2.1,2.1,0,0,1-.7.53,2,2,0,0,1-.81.18,1.43,1.43,0,0,1-1.06-.42,1.47,1.47,0,0,1-.42-1.09,1.54,1.54,0,0,1,.46-1.18,2.66,2.66,0,0,1,1.65-.54,6.68,6.68,0,0,0,1.33-.2,1.71,1.71,0,0,0,.09-.47.49.49,0,0,0-.18-.38.83.83,0,0,0-.54-.15,1,1,0,0,0-.59.16A.77.77,0,0,0,64.92,251.53Zm1.33,1.3a2,2,0,0,1-.34.07,3.09,3.09,0,0,0-1.38.37.56.56,0,0,0-.22.47.53.53,0,0,0,.17.41.61.61,0,0,0,.46.17,1.21,1.21,0,0,0,.6-.15,1,1,0,0,0,.42-.4,2.4,2.4,0,0,0,.25-.75Z"/></g></g></svg>