<svg xmlns="http://www.w3.org/2000/svg" xmlns:xlink="http://www.w3.org/1999/xlink" xmlns:lucid="lucid" width="1640.48" height="600"><g transform="translate(-29 7.105427357601002e-15)" lucid:page-tab-id="0_0"><path d="M0 0h1682.5v616.36H0z" fill="#fff"/><path d="M880.5 150.8c0-3.32 2.7-6 6-6h748c3.3 0 6 2.68 6 6V454c0 3.3-2.7 6-6 6h-748c-3.3 0-6-2.7-6-6z" fill="#ffeca9"/><path d="M884.25 145.4l2.25-.6h2m3.97 0h3.98m3.98 0h3.97m3.98 0h3.98m3.98 0h3.98m3.98 0h3.98m3.98 0h3.97m3.98 0h4m3.97 0h3.98m3.98 0h3.98m4 0h3.96m3.98 0h3.98m3.98 0h3.98m3.98 0h3.98m3.97 0h4m3.97 0h3.98m3.98 0h3.98m4 0h3.97m3.97 0h3.98m3.98 0h3.98m3.98 0h3.98m3.98 0h3.98m3.97 0h3.98m3.98 0h3.98m4 0h3.97m3.98 0h3.98m3.97 0h3.98m3.98 0h3.98m3.98 0h3.98m3.98 0h3.98m3.97 0h3.98m4 0h3.97m3.98 0h3.98m3.98 0h4m3.96 0h3.98m3.98 0h3.98m3.98 0h3.98m3.98 0h3.97m4 0h3.97m3.98 0h3.98m3.98 0h4m3.97 0h3.97m3.98 0h3.98m3.98 0h3.98m3.98 0h3.98m3.98 0h3.97m3.98 0h3.98m3.98 0h4m3.97 0h3.98m3.98 0h3.97m3.98 0h3.98m3.98 0h3.98m3.98 0h3.98m3.98 0h3.97m3.98 0h4m3.97 0h3.98m3.98 0h3.98m4 0h3.96m3.98 0h3.98m3.98 0h3.98m3.98 0h3.98m3.97 0h4m3.97 0h3.98m3.98 0h3.98m4 0h3.97m3.97 0h3.98m3.98 0h3.98m3.98 0h3.98m3.98 0h3.98m3.97 0h3.98m3.98 0h3.98m4 0h3.97m3.98 0h3.98m3.97 0h3.98m3.98 0h3.98m3.98 0h3.98m3.98 0h3.98m3.97 0h3.98m4 0h3.97m3.98 0h3.98m3.98 0h4m3.96 0h3.98m3.98 0h3.98m3.98 0h3.98m3.98 0h3.97m4 0h3.97m3.98 0h3.98m3.98 0h4m3.97 0h3.97m3.98 0h3.98m3.98 0h3.98m3.98 0h3.98m3.98 0h3.97m3.98 0h3.98m3.98 0h2l2.25.6m3.14 3.14l.6 2.25v2m0 3.98v4m0 3.98v3.98m0 4v3.98m0 4v3.98m0 4v3.98m0 4v3.98m0 4v3.98m0 4v3.98m0 4v3.98m0 4v3.98m0 4v3.98m0 4v3.98m0 4v3.98m0 4v3.97m0 3.98v4m0 3.98v4m0 3.98v4m0 3.98v4m0 3.98v4m0 3.98v4m0 3.98v4m0 3.98v4m0 3.98v4m0 3.98v4m0 3.98v4m0 3.98v3.98m0 4v3.98m0 4v3.98m0 4v3.98m0 4v3.98m0 4v3.98m0 4v3.98m0 4v3.98m0 4v3.98m0 4v3.98m0 4v3.98m0 4V448m0 4V454l-.6 2.25m-3.15 3.14l-2.25.6h-2m-3.97 0h-3.98m-3.98 0h-3.97m-3.98 0h-3.98m-3.98 0h-3.98m-3.98 0h-3.98m-3.98 0h-3.97m-3.98 0h-4m-3.97 0h-3.98m-3.98 0h-3.98m-4 0h-3.96m-3.98 0h-3.98m-3.98 0h-3.98m-3.98 0h-3.98m-3.97 0h-4m-3.97 0h-3.98m-3.98 0h-3.98m-4 0h-3.97m-3.97 0h-3.98m-3.98 0h-3.98m-3.98 0h-3.98m-3.98 0h-3.98m-3.97 0h-3.98m-3.98 0h-3.98m-4 0h-3.97m-3.98 0h-3.98m-3.97 0h-3.98m-3.98 0h-3.98m-3.98 0h-3.98m-3.98 0h-3.98m-3.97 0h-3.98m-4 0h-3.97m-3.98 0h-3.98m-3.98 0h-4m-3.96 0h-3.98m-3.98 0H1354m-3.98 0h-3.98m-3.98 0h-3.97m-4 0h-3.97m-3.98 0h-3.98m-3.98 0h-4m-3.97 0h-3.97m-3.98 0h-3.98m-3.98 0h-3.98m-3.98 0h-3.98m-3.98 0h-3.97m-3.98 0h-3.98m-3.98 0h-4m-3.97 0h-3.98m-3.98 0h-3.97m-3.98 0h-3.98m-3.98 0h-3.98m-3.98 0h-3.98m-3.98 0h-3.97m-3.98 0h-4m-3.97 0h-3.98m-3.98 0h-3.98m-4 0h-3.96m-3.98 0h-3.98m-3.98 0h-3.98m-3.98 0h-3.98m-3.97 0h-4m-3.97 0h-3.98m-3.98 0h-3.98m-4 0h-3.97m-3.97 0h-3.98m-3.98 0h-3.98m-3.98 0h-3.98m-3.98 0h-3.98m-3.97 0h-3.98m-3.98 0h-3.98m-4 0h-3.97m-3.98 0h-3.98m-3.97 0h-3.98m-3.98 0h-3.98m-3.98 0h-3.98m-3.98 0h-3.98m-3.97 0h-3.98m-4 0h-3.97m-3.98 0h-3.98m-3.98 0h-4m-3.96 0h-3.98m-3.98 0H980m-3.98 0h-3.98m-3.98 0h-3.97m-4 0h-3.97m-3.98 0h-3.98m-3.98 0h-4m-3.97 0h-3.97m-3.98 0h-3.98m-3.98 0h-3.98m-3.98 0h-3.98m-3.98 0h-3.97m-3.98 0h-3.98m-3.98 0h-2l-2.25-.6m-3.14-3.15l-.6-2.25v-2m0-3.98v-4m0-3.98v-4m0-3.98v-4m0-3.98v-4m0-3.98v-4m0-3.98v-4m0-3.98v-4m0-3.98v-4m0-3.98v-4m0-3.98v-4m0-3.98v-4m0-3.98v-3.98m0-4v-3.98m0-4v-3.98m0-4v-3.98m0-4v-3.98m0-4v-3.98m0-4v-3.98m0-4v-3.98m0-4v-3.98m0-4v-3.98m0-4v-3.98m0-4v-3.98m0-4v-3.97m0-3.98v-4m0-3.98v-4m0-3.98v-4m0-3.98v-4m0-3.98v-4m0-3.98v-4m0-3.98v-4m0-3.98v-4m0-3.98v-4m0-3.98v-4m0-3.98v-4m0-3.98v-3.98m0-4v-3.98m0-4v-2l.6-2.24" stroke="#5e5e5e" fill="none"/><use xlink:href="#a" transform="matrix(1,0,0,1,885.5,149.79166666666663) translate(201.85185185185185 17.77777777777778)"/><use xlink:href="#b" transform="matrix(1,0,0,1,885.5,149.79166666666663) translate(308.9506172839506 17.77777777777778)"/><use xlink:href="#c" transform="matrix(1,0,0,1,885.5,149.79166666666663) translate(363.2098765432099 17.77777777777778)"/><use xlink:href="#d" transform="matrix(1,0,0,1,885.5,149.79166666666663) translate(463.08641975308643 17.77777777777778)"/><path d="M80.5 94.67h107V158h-107zM187.5 94.67h73V158h-73zM260.5 94.67h384V158h-384z" fill="#9cf"/><path d="M80.5 158h107v160h-107zM187.5 158h73v40h-73zM260.5 158h384v40h-384zM187.5 198h73v40h-73zM260.5 198h384v40h-384zM187.5 238h73v40h-73zM260.5 238h384v40h-384zM187.5 278h73v40h-73zM260.5 278h384v40h-384z" fill="#fff"/><path d="M80.5 94.67V158M187.5 94.67V158M260.5 94.67V158M644.5 94.67V158M80.5 158v160M187.5 158v40M260.5 158v40M644.5 158v40M187.5 198v40M260.5 198v40M644.5 198v40M187.5 238v40M260.5 238v40M644.5 238v40M187.5 278v40M260.5 278v40M644.5 278v40M80.5 94.67h107M187.5 94.67h73M260.5 94.67h384M80.5 158h107M80.5 318h107M187.5 158h73M260.5 158h384M187.5 198h73M260.5 198h384M187.5 238h73M260.5 238h384M187.5 278h73M187.5 318h73M260.5 278h384M260.5 318h384" stroke="#5e5e5e" fill="none"/><use xlink:href="#e" transform="matrix(1,0,0,1,85.5,99.66666666666674) translate(21.339506172839506 31.444444444444443)"/><use xlink:href="#f" transform="matrix(1,0,0,1,192.5,99.66666666666674) translate(11.746913580246915 31.444444444444443)"/><use xlink:href="#g" transform="matrix(1,0,0,1,265.5,99.66666666666674) translate(109.87037037037038 31.444444444444443)"/><use xlink:href="#h" transform="matrix(1,0,0,1,265.5,99.66666666666674) translate(180.179012345679 31.444444444444443)"/><use xlink:href="#i" transform="matrix(1,0,0,1,85.5,163.00000000000006) translate(10.845679012345684 79.44444444444444)"/><use xlink:href="#j" transform="matrix(1,0,0,1,192.5,163.00000000000006) translate(7.425925925925927 19.444444444444443)"/><use xlink:href="#k" transform="matrix(1,0,0,1,265.5,163.00000000000006) translate(162.92592592592592 19.444444444444443)"/><use xlink:href="#l" transform="matrix(1,0,0,1,192.5,203.00000000000006) translate(7.425925925925927 19.444444444444443)"/><use xlink:href="#m" transform="matrix(1,0,0,1,265.5,203.00000000000006) translate(28.481481481481495 19.444444444444443)"/><use xlink:href="#n" transform="matrix(1,0,0,1,265.5,203.00000000000006) translate(136.93827160493828 19.444444444444443)"/><use xlink:href="#o" transform="matrix(1,0,0,1,265.5,203.00000000000006) translate(215.9506172839506 19.444444444444443)"/><use xlink:href="#p" transform="matrix(1,0,0,1,265.5,203.00000000000006) translate(228.29629629629628 19.444444444444443)"/><use xlink:href="#q" transform="matrix(1,0,0,1,265.5,203.00000000000006) translate(282.61728395061726 19.444444444444443)"/><use xlink:href="#r" transform="matrix(1,0,0,1,265.5,203.00000000000006) translate(307.30864197530866 19.444444444444443)"/><use xlink:href="#s" transform="matrix(1,0,0,1,265.5,203.00000000000006) translate(338.17283950617286 19.444444444444443)"/><use xlink:href="#t" transform="matrix(1,0,0,1,192.5,243.00000000000006) translate(7.425925925925927 19.444444444444443)"/><use xlink:href="#m" transform="matrix(1,0,0,1,265.5,243.00000000000006) translate(28.481481481481495 19.444444444444443)"/><use xlink:href="#n" transform="matrix(1,0,0,1,265.5,243.00000000000006) translate(136.93827160493828 19.444444444444443)"/><use xlink:href="#o" transform="matrix(1,0,0,1,265.5,243.00000000000006) translate(215.9506172839506 19.444444444444443)"/><use xlink:href="#u" transform="matrix(1,0,0,1,265.5,243.00000000000006) translate(228.29629629629628 19.444444444444443)"/><use xlink:href="#q" transform="matrix(1,0,0,1,265.5,243.00000000000006) translate(282.61728395061726 19.444444444444443)"/><use xlink:href="#v" transform="matrix(1,0,0,1,265.5,243.00000000000006) translate(307.30864197530866 19.444444444444443)"/><use xlink:href="#s" transform="matrix(1,0,0,1,265.5,243.00000000000006) translate(338.17283950617286 19.444444444444443)"/><use xlink:href="#k" transform="matrix(1,0,0,1,192.5,283.00000000000006) translate(7.425925925925927 19.444444444444443)"/><use xlink:href="#m" transform="matrix(1,0,0,1,265.5,283.00000000000006) translate(28.481481481481495 19.444444444444443)"/><use xlink:href="#n" transform="matrix(1,0,0,1,265.5,283.00000000000006) translate(136.93827160493828 19.444444444444443)"/><use xlink:href="#o" transform="matrix(1,0,0,1,265.5,283.00000000000006) translate(215.9506172839506 19.444444444444443)"/><use xlink:href="#w" transform="matrix(1,0,0,1,265.5,283.00000000000006) translate(228.29629629629628 19.444444444444443)"/><use xlink:href="#q" transform="matrix(1,0,0,1,265.5,283.00000000000006) translate(282.61728395061726 19.444444444444443)"/><use xlink:href="#x" transform="matrix(1,0,0,1,265.5,283.00000000000006) translate(307.30864197530866 19.444444444444443)"/><use xlink:href="#s" transform="matrix(1,0,0,1,265.5,283.00000000000006) translate(338.17283950617286 19.444444444444443)"/><path d="M80.5 460h107v120h-107zM187.5 460h69v40h-69zM256.5 460h388v40h-388zM187.5 500h69v40h-69zM256.5 500h388v40h-388zM187.5 540h69v40h-69zM256.5 540h388v40h-388z" fill="#fff"/><path d="M80.5 460v120M187.5 460v40M256.5 460v40M644.5 460v40M187.5 500v40M256.5 500v40M644.5 500v40M187.5 540v40M256.5 540v40M644.5 540v40M80.5 460h107M80.5 580h107M187.5 460h69M256.5 460h388M187.5 500h69M256.5 500h388M187.5 540h69M187.5 580h69M256.5 540h388M256.5 580h388" stroke="#5e5e5e" fill="none"/><use xlink:href="#y" transform="matrix(1,0,0,1,85.5,465) translate(12.080246913580247 59.44444444444444)"/><use xlink:href="#l" transform="matrix(1,0,0,1,192.5,465) translate(5.425925925925927 19.444444444444443)"/><use xlink:href="#g" transform="matrix(1,0,0,1,261.5,465) translate(146.43827160493828 19.444444444444443)"/><use xlink:href="#z" transform="matrix(1,0,0,1,261.5,465) translate(216.7469135802469 19.444444444444443)"/><use xlink:href="#t" transform="matrix(1,0,0,1,192.5,505) translate(5.425925925925927 19.444444444444443)"/><use xlink:href="#g" transform="matrix(1,0,0,1,261.5,505) translate(146.43827160493828 19.444444444444443)"/><use xlink:href="#A" transform="matrix(1,0,0,1,261.5,505) translate(216.7469135802469 19.444444444444443)"/><use xlink:href="#k" transform="matrix(1,0,0,1,192.5,545) translate(5.425925925925927 19.444444444444443)"/><use xlink:href="#g" transform="matrix(1,0,0,1,261.5,545) translate(145.85185185185185 19.444444444444443)"/><use xlink:href="#B" transform="matrix(1,0,0,1,261.5,545) translate(216.16049382716048 19.444444444444443)"/><path d="M901.5 353.05h80v40h-80zM981.5 353.05h80v40h-80zM1061.5 353.05h80v40h-80zM1141.5 353.05h80v40h-80zM1221.5 353.05h80v40h-80zM1301.5 353.05h80v40h-80zM1381.5 353.05h80v40h-80zM1461.5 353.05h80v40h-80zM1541.5 353.05h80v40h-80z" fill="#9cf"/><path d="M901.5 393.05h80v40h-80zM981.5 393.05h80v40h-80zM1061.5 393.05h80v40h-80zM1141.5 393.05h80v40h-80zM1221.5 393.05h80v40h-80zM1301.5 393.05h80v40h-80zM1381.5 393.05h80v40h-80zM1461.5 393.05h80v40h-80zM1541.5 393.05h80v40h-80z" fill="#fff"/><path d="M901.5 353.05v40M981.5 353.05v40M1061.5 353.05v40M1141.5 353.05v40M1221.5 353.05v40M1301.5 353.05v40M1381.5 353.05v40M1461.5 353.05v40M1541.5 353.05v40M1621.5 353.05v40M901.5 393.05v40M981.5 393.05v40M1061.5 393.05v40M1141.5 393.05v40M1221.5 393.05v40M1301.5 393.05v40M1381.5 393.05v40M1461.5 393.05v40M1541.5 393.05v40M1621.5 393.05v40M901.5 353.05h80M981.5 353.05h80M1061.5 353.05h80M1141.5 353.05h80M1221.5 353.05h80M1301.5 353.05h80M1381.5 353.05h80M1461.5 353.05h80M1541.5 353.05h80M901.5 393.05h80M901.5 433.05h80M981.5 393.05h80M981.5 433.05h80M1061.5 393.05h80M1061.5 433.05h80M1141.5 393.05h80M1141.5 433.05h80M1221.5 393.05h80M1221.5 433.05h80M1301.5 393.05h80M1301.5 433.05h80M1381.5 393.05h80M1381.5 433.05h80M1461.5 393.05h80M1461.5 433.05h80M1541.5 393.05h80M1541.5 433.05h80" stroke="#5e5e5e" fill="none"/><use xlink:href="#C" transform="matrix(1,0,0,1,906.5000000000391,358.0517104216474) translate(12.839506172839506 19.444444444444443)"/><use xlink:href="#D" transform="matrix(1,0,0,1,986.5000000000391,358.0517104216474) translate(0.43209876543209447 19.444444444444443)"/><use xlink:href="#E" transform="matrix(1,0,0,1,986.5000000000391,358.0517104216474) translate(57.22222222222222 19.444444444444443)"/><use xlink:href="#F" transform="matrix(1,0,0,1,1066.500000000039,358.0517104216474) translate(3.518518518518519 19.444444444444443)"/><use xlink:href="#G" transform="matrix(1,0,0,1,1066.500000000039,358.0517104216474) translate(54.135802469135804 19.444444444444443)"/><use xlink:href="#F" transform="matrix(1,0,0,1,1146.500000000039,358.0517104216474) translate(3.518518518518519 19.444444444444443)"/><use xlink:href="#H" transform="matrix(1,0,0,1,1146.500000000039,358.0517104216474) translate(54.135802469135804 19.444444444444443)"/><use xlink:href="#F" transform="matrix(1,0,0,1,1226.500000000039,358.0517104216474) translate(3.518518518518519 19.444444444444443)"/><use xlink:href="#I" transform="matrix(1,0,0,1,1226.500000000039,358.0517104216474) translate(54.135802469135804 19.444444444444443)"/><use xlink:href="#F" transform="matrix(1,0,0,1,1306.500000000039,358.0517104216474) translate(3.518518518518519 19.444444444444443)"/><use xlink:href="#J" transform="matrix(1,0,0,1,1306.500000000039,358.0517104216474) translate(54.135802469135804 19.444444444444443)"/><use xlink:href="#F" transform="matrix(1,0,0,1,1386.500000000039,358.0517104216474) translate(3.518518518518519 19.444444444444443)"/><use xlink:href="#K" transform="matrix(1,0,0,1,1386.500000000039,358.0517104216474) translate(54.135802469135804 19.444444444444443)"/><use xlink:href="#F" transform="matrix(1,0,0,1,1466.500000000039,358.0517104216474) translate(3.518518518518519 19.444444444444443)"/><use xlink:href="#L" transform="matrix(1,0,0,1,1466.500000000039,358.0517104216474) translate(54.135802469135804 19.444444444444443)"/><use xlink:href="#F" transform="matrix(1,0,0,1,1546.500000000039,358.0517104216474) translate(3.518518518518519 19.444444444444443)"/><use xlink:href="#M" transform="matrix(1,0,0,1,1546.500000000039,358.0517104216474) translate(54.135802469135804 19.444444444444443)"/><use xlink:href="#N" transform="matrix(1,0,0,1,906.5000000000391,398.0517104216474) translate(28.82716049382716 19.444444444444443)"/><path d="M981.5 399.05c0-3.3 2.7-6 6-6h308c3.3 0 6 2.7 6 6v28c0 3.32-2.7 6-6 6h-308c-3.3 0-6-2.68-6-6z" stroke="#5e5e5e" stroke-width="3" fill="#fff"/><use xlink:href="#O" transform="matrix(1,0,0,1,986.5000000000391,398.05171042164744) translate(124.19387480979498 18.701380064944225)"/><use xlink:href="#P" transform="matrix(1,0,0,1,986.5000000000391,398.05171042164744) translate(175.9091418027515 18.701380064944225)"/><path d="M646 481.33h489.5c3.3 0 6-2.68 6-6v-22.28" stroke="#5e5e5e" stroke-width="2" fill="none"/><path d="M646.03 482.33H645v-2h1.03z" fill="#5e5e5e"/><path d="M1141.5 437.8l4.64 14.25h-9.28z" stroke="#5e5e5e" stroke-width="2" fill="#5e5e5e"/><path d="M1301.5 399.05c0-3.3 2.7-6 6-6h68c3.3 0 6 2.7 6 6v28c0 3.32-2.7 6-6 6h-68c-3.3 0-6-2.68-6-6z" stroke="#5e5e5e" stroke-width="3" fill="#fff"/><use xlink:href="#O" transform="matrix(1,0,0,1,1306.500000000039,398.05171042164744) translate(4.1938748097949805 18.701380064944225)"/><use xlink:href="#Q" transform="matrix(1,0,0,1,1306.500000000039,398.05171042164744) translate(55.90914180275149 18.701380064944225)"/><path d="M1381.5 399.05c0-3.3 2.7-6 6-6h148c3.3 0 6 2.7 6 6v28c0 3.32-2.7 6-6 6h-148c-3.3 0-6-2.68-6-6z" stroke="#5e5e5e" stroke-width="3" fill="#fff"/><use xlink:href="#O" transform="matrix(1,0,0,1,1386.500000000039,398.05171042164744) translate(43.26253588404161 18.701380064944225)"/><use xlink:href="#R" transform="matrix(1,0,0,1,1386.500000000039,398.05171042164744) translate(94.97780287699813 18.701380064944225)"/><path d="M646 520h689.5c3.3 0 6-2.7 6-6v-60.95" stroke="#5e5e5e" stroke-width="2" fill="none"/><path d="M646.03 521H645v-2h1.03z" fill="#5e5e5e"/><path d="M1341.5 437.8l4.64 14.25h-9.28z" stroke="#5e5e5e" stroke-width="2" fill="#5e5e5e"/><path d="M646 557.33h810.83c3.32 0 6-2.68 6-6v-99.28" stroke="#5e5e5e" stroke-width="2" fill="none"/><path d="M646.03 558.33H645v-2h1.03z" fill="#5e5e5e"/><path d="M1462.83 436.8l4.64 14.25h-9.27z" stroke="#5e5e5e" stroke-width="2" fill="#5e5e5e"/><path d="M1261.6 312.05v-33c0-3.3-2.7-6-6-6H946.16c-3.32 0-6 2.7-6 6v55" stroke="#5e5e5e" stroke-width="2" fill="none"/><path d="M1262.6 313.05h-2v-1.02h2z" fill="#5e5e5e"/><path d="M940.17 349.32l-4.64-14.27h9.27z" stroke="#5e5e5e" stroke-width="2" fill="#5e5e5e"/><path d="M982.83 319.05c0-3.3 2.7-6 6-6h546.67c3.3 0 6 2.7 6 6v8c0 3.32-2.7 6-6 6H988.83c-3.3 0-6-2.68-6-6z" stroke="#000" stroke-opacity="0" stroke-width="3" fill-opacity="0"/><g fill="none"><path d="M988.83 333.05c-3.3 0-6-2.68-6-6v-68c0-3.3 2.7-6 6-6h545.34c3.3 0 6 2.7 6 6v68c0 3.32-2.7 6-6 6z"/><path d="M1540.17 333.05c0-5.52-4.48-10-10-10H1271.5c-5.52 0-10-4.48-10-10 0 5.52-4.48 10-10 10H992.83c-5.52 0-10 4.48-10 10" stroke="#5e5e5e" stroke-width="3"/></g><path d="M479.5 343.33c0 3.32-2.7 6-6 6h-68c-3.3 0-6-2.68-6-6v-8c0-3.3 2.7-6 6-6h68c3.3 0 6 2.7 6 6z" stroke="#000" stroke-opacity="0" stroke-width="3" fill="#fff"/><g fill="none"><path d="M473.5 329.33c3.3 0 6 2.7 6 6v68c0 3.32-2.7 6-6 6h-67.8c-3.32 0-6-2.68-6-6v-68c0-3.3 2.68-6 6-6z"/><path d="M399.7 329.33c0 5.53 4.47 10 10 10h19.9c5.52 0 10 4.48 10 10 0-5.52 4.47-10 10-10h19.9c5.52 0 10-4.47 10-10" stroke="#5e5e5e" stroke-width="3"/></g><path d="M439.5 350.33V374c0 3.3-2.7 6-6 6H141.17c-3.32 0-6 2.7-6 6v55" stroke="#5e5e5e" stroke-width="2" fill="none"/><path d="M440.5 350.36h-2v-1.03h2z" fill="#5e5e5e"/><path d="M135.17 456.26L130.53 442h9.27z" stroke="#5e5e5e" stroke-width="2" fill="#5e5e5e"/><path d="M545.5 343.33c0 3.32-2.7 6-6 6h-48c-3.3 0-6-2.68-6-6v-8c0-3.3 2.7-6 6-6h48c3.3 0 6 2.7 6 6z" stroke="#000" stroke-opacity="0" stroke-width="3" fill="#fff"/><g fill="none"><path d="M539.5 329.33c3.3 0 6 2.7 6 6v68c0 3.32-2.7 6-6 6h-47.86c-3.3 0-6-2.68-6-6v-68c0-3.3 2.7-6 6-6z"/><path d="M485.64 329.33c0 5.53 4.48 10 10 10h9.93c5.52 0 10 4.48 10 10 0-5.52 4.48-10 10-10h9.93c5.52 0 10-4.47 10-10" stroke="#5e5e5e" stroke-width="3"/></g><path d="M224.5 441v-30.58c0-3.32 2.7-6 6-6h278.67c3.3 0 6-2.7 6-6v-48.1" stroke="#5e5e5e" stroke-width="2" fill="none"/><path d="M224.5 456.26L219.86 442h9.28z" stroke="#5e5e5e" stroke-width="2" fill="#5e5e5e"/><path d="M516.17 350.36h-2v-1.03h2z" fill="#5e5e5e"/><path d="M140.5 326.33c0-3.3 2.7-6 6-6h168c3.3 0 6 2.7 6 6v78c0 3.32-2.7 6-6 6h-168c-3.3 0-6-2.68-6-6z" stroke="#000" stroke-opacity="0" stroke-width="3" fill="#fff" fill-opacity="0"/><use xlink:href="#S" transform="matrix(1,0,0,1,145.5,325.33333333341096) translate(1.728395061728392 45.27777777777778)"/><use xlink:href="#T" transform="matrix(1,0,0,1,145.5,325.33333333341096) translate(48.58024691358025 45.27777777777778)"/><use xlink:href="#U" transform="matrix(1,0,0,1,145.5,325.33333333341096) translate(73.27160493827161 45.27777777777778)"/><use xlink:href="#V" transform="matrix(1,0,0,1,145.5,325.33333333341096) translate(115.24691358024693 45.27777777777778)"/><path d="M240.5 386.33c0-3.3 2.7-6 6-6h208c3.3 0 6 2.7 6 6v78c0 3.32-2.7 6-6 6h-208c-3.3 0-6-2.68-6-6z" stroke="#000" stroke-opacity="0" stroke-width="3" fill="#fff" fill-opacity="0"/><g><use xlink:href="#S" transform="matrix(1,0,0,1,245.5,385.33333333341096) translate(3.827160493827151 45.27777777777778)"/><use xlink:href="#T" transform="matrix(1,0,0,1,245.5,385.33333333341096) translate(50.679012345679006 45.27777777777778)"/><use xlink:href="#U" transform="matrix(1,0,0,1,245.5,385.33333333341096) translate(75.37037037037037 45.27777777777778)"/><use xlink:href="#W" transform="matrix(1,0,0,1,245.5,385.33333333341096) translate(117.34567901234568 45.27777777777778)"/></g><g><path d="M611.5 343.33c0 3.32-2.7 6-6 6h-48c-3.3 0-6-2.68-6-6v-8c0-3.3 2.7-6 6-6h48c3.3 0 6 2.7 6 6z" stroke="#000" stroke-opacity="0" stroke-width="3" fill="#fff"/></g><g fill="none"><path d="M605.5 329.33c3.3 0 6 2.7 6 6v68c0 3.32-2.7 6-6 6h-47.86c-3.3 0-6-2.68-6-6v-68c0-3.3 2.7-6 6-6z"/><path d="M551.64 329.33c0 5.53 4.48 10 10 10h9.93c5.52 0 10 4.48 10 10 0-5.52 4.48-10 10-10h9.93c5.52 0 10-4.47 10-10" stroke="#5e5e5e" stroke-width="3"/></g><path d="M581.83 441v-36.42c0-.1-.07-.16-.16-.16-.1 0-.17-.08-.17-.17v-53.92" stroke="#5e5e5e" stroke-width="2" fill="none"/><path d="M581.83 456.26L577.2 442h9.27z" stroke="#5e5e5e" stroke-width="2" fill="#5e5e5e"/><path d="M582.5 350.36h-2v-1.03h2z" fill="#5e5e5e"/><path d="M583 379c0-3.3 2.7-6 6-6h68c3.3 0 6 2.7 6 6v51.33c0 3.32-2.7 6-6 6h-68c-3.3 0-6-2.68-6-6z" stroke="#000" stroke-opacity="0" stroke-width="3" fill="#fff" fill-opacity="0"/><g><use xlink:href="#X" transform="matrix(1,0,0,1,588,378.00000000000017) translate(-2.5925925925925952 18.111111111111114)"/><use xlink:href="#Y" transform="matrix(1,0,0,1,588,378.00000000000017) translate(5.401234567901234 44.777777777777786)"/><use xlink:href="#Z" transform="matrix(1,0,0,1,588,378.00000000000017) translate(30.09259259259259 44.777777777777786)"/></g><path d="M443 27.67c0-3.32 2.7-6 6-6h168c3.3 0 6 2.68 6 6v48c0 3.3-2.7 6-6 6H449c-3.3 0-6-2.7-6-6z" stroke="#000" stroke-opacity="0" stroke-width="3" fill="#fff" fill-opacity="0"/><g><use xlink:href="#aa" transform="matrix(1,0,0,1,448,26.666666666666636) translate(35.06172839506173 20.96527777777778)"/><use xlink:href="#ab" transform="matrix(1,0,0,1,448,26.666666666666636) translate(116.41975308641975 20.96527777777778)"/><use xlink:href="#ac" transform="matrix(1,0,0,1,448,26.666666666666636) translate(11.023518518518523 47.63194444444444)"/><use xlink:href="#ad" transform="matrix(1,0,0,1,448,26.666666666666636) translate(87.505 47.63194444444444)"/><use xlink:href="#ae" transform="matrix(1,0,0,1,448,26.666666666666636) translate(110.90006172839506 47.63194444444444)"/></g><path d="M624 51.67h55c3.3 0 6 2.68 6 6v116c0 3.3-2.7 6-6 6h-15.5" stroke="#5e5e5e" stroke-width="2" fill="none"/><path d="M624.03 52.67H623v-2h1.03z" fill="#5e5e5e"/><path d="M648.24 179.67l14.26-4.64v9.27z" stroke="#5e5e5e" stroke-width="2" fill="#5e5e5e"/><path d="M110.5 26c0-3.3 2.7-6 6-6h128c3.3 0 6 2.7 6 6v51.33c0 3.32-2.7 6-6 6h-128c-3.3 0-6-2.68-6-6z" stroke="#000" stroke-opacity="0" stroke-width="3" fill="#fff" fill-opacity="0"/><g><use xlink:href="#af" transform="matrix(1,0,0,1,115.5,24.999999999999993) translate(6.450617283950621 17.77777777777778)"/><use xlink:href="#ag" transform="matrix(1,0,0,1,115.5,24.999999999999993) translate(97.68518518518519 17.77777777777778)"/><use xlink:href="#ah" transform="matrix(1,0,0,1,115.5,24.999999999999993) translate(25.52469135802469 44.44444444444444)"/><use xlink:href="#ai" transform="matrix(1,0,0,1,115.5,24.999999999999993) translate(79.78395061728395 44.44444444444444)"/></g><path d="M109.5 51.67H46c-3.3 0-6 2.68-6 6v169.66c0 3.32 2.7 6 6 6h15.5" stroke="#5e5e5e" stroke-width="2" fill="none"/><path d="M110.5 52.67h-1.03v-2h1.03z" fill="#5e5e5e"/><path d="M76.76 233.33l-14.26 4.64v-9.27z" stroke="#5e5e5e" stroke-width="2" fill="#5e5e5e"/><g><path d="M665.5 200c2.76 0 5 2.24 5 5v108c0 2.76-2.24 5-5 5s-5-2.24-5-5V205c0-2.76 2.24-5 5-5z" stroke="#000" stroke-opacity="0" stroke-width="3" fill="#fff"/></g><path d="M660.5 206c0-3.3 2.7-6 6-6h28c3.3 0 6 2.7 6 6v105.72c0 3.3-2.7 6-6 6h-28c-3.3 0-6-2.7-6-6z" fill="none"/><path d="M660.5 317.72c5.52 0 10-4.48 10-10v-38.86c0-5.52 4.48-10 10-10-5.52 0-10-4.48-10-10V210c0-5.52-4.48-10-10-10" stroke="#5e5e5e" stroke-width="3" fill="none"/><path d="M700.5 29.33c0-3.3 2.7-6 6-6h168c3.3 0 6 2.7 6 6v48c0 3.32-2.7 6-6 6h-168c-3.3 0-6-2.68-6-6z" stroke="#000" stroke-opacity="0" stroke-width="3" fill="#fff" fill-opacity="0"/><g><use xlink:href="#aj" transform="matrix(1,0,0,1,705.5,28.333333333333265) translate(28.2716049382716 20.96527777777778)"/><use xlink:href="#ak" transform="matrix(1,0,0,1,705.5,28.333333333333265) translate(65.30864197530863 20.96527777777778)"/><use xlink:href="#ab" transform="matrix(1,0,0,1,705.5,28.333333333333265) translate(123.20987654320987 20.96527777777778)"/><use xlink:href="#ac" transform="matrix(1,0,0,1,705.5,28.333333333333265) translate(11.023518518518523 47.63194444444444)"/><use xlink:href="#ad" transform="matrix(1,0,0,1,705.5,28.333333333333265) translate(87.505 47.63194444444444)"/><use xlink:href="#ae" transform="matrix(1,0,0,1,705.5,28.333333333333265) translate(110.90006172839506 47.63194444444444)"/></g><path d="M790.5 84.33v168.53c0 3.3-2.7 6-6 6h-76.08" stroke="#5e5e5e" stroke-width="2" fill="none"/><path d="M791.5 84.36h-2v-1.03h2z" fill="#5e5e5e"/><path d="M693.16 258.86l14.26-4.64v9.27z" stroke="#5e5e5e" stroke-width="2" fill="#5e5e5e"/><g><path d="M653 199.72v100h10l-20 18-20-18h10v-100z" stroke="#5e5e5e" fill="#ffc374"/></g><path d="M1101.5 205.72c0-3.32 2.7-6 6-6h92.5c3.3 0 6 2.68 6 6v78c0 3.3-2.7 6-6 6h-92.5c-3.3 0-6-2.7-6-6z" stroke="#000" stroke-opacity="0" stroke-width="3" fill="#fff" fill-opacity="0"/><g><use xlink:href="#X" transform="matrix(1,0,0,1,1106.500000000039,204.71837708831413) translate(9.907407407407405 30.27777777777778)"/><use xlink:href="#Y" transform="matrix(1,0,0,1,1106.500000000039,204.71837708831413) translate(8.611111111111114 56.94444444444445)"/><use xlink:href="#al" transform="matrix(1,0,0,1,1106.500000000039,204.71837708831413) translate(33.30246913580247 56.94444444444445)"/></g><g><path d="M1620.5 454c0 3.3-2.7 6-6 6h-67c-3.3 0-6-2.7-6-6v-8c0-3.3 2.7-6 6-6h67c3.3 0 6 2.7 6 6z" stroke="#000" stroke-opacity="0" stroke-width="3" fill-opacity="0"/></g><g fill="none"><path d="M1614.5 440c3.3 0 6 2.7 6 6v68c0 3.3-2.7 6-6 6h-66.8c-3.33 0-6-2.7-6-6v-68c0-3.3 2.67-6 6-6z"/><path d="M1541.7 440c0 5.52 4.47 10 10 10h19.4c5.52 0 10 4.48 10 10 0-5.52 4.47-10 10-10h19.4c5.52 0 10-4.48 10-10" stroke="#5e5e5e" stroke-width="3"/></g><path d="M1512.52 526c0-3.3 2.68-6 6-6h124.96c3.32 0 6 2.7 6 6v48c0 3.3-2.68 6-6 6h-124.96c-3.32 0-6-2.7-6-6z" stroke="#000" stroke-opacity="0" stroke-width="3" fill="#fff" fill-opacity="0"/><g><use xlink:href="#am" transform="matrix(1,0,0,1,1517.5153639618202,525) translate(9.209876543209873 17.77777777777778)"/><use xlink:href="#an" transform="matrix(1,0,0,1,1517.5153639618202,525) translate(46.24691358024691 17.77777777777778)"/><use xlink:href="#ao" transform="matrix(1,0,0,1,1517.5153639618202,525) translate(100.5679012345679 17.77777777777778)"/><use xlink:href="#ap" transform="matrix(1,0,0,1,1517.5153639618202,525) translate(21.586419753086417 44.44444444444444)"/></g><path d="M1581 519v-40.5" stroke="#5e5e5e" stroke-width="2" fill="none"/><path d="M1582 520h-2v-1.03h2z" fill="#5e5e5e"/><path d="M1581 463.24l4.64 14.26h-9.28z" stroke="#5e5e5e" stroke-width="2" fill="#5e5e5e"/><defs><path fill="#333" d="M240-174c0 40-23 61-54 70L253 0h-59l-57-94H76V0H24v-248c93 4 217-23 216 74zM76-134c48-2 112 12 112-38 0-48-66-32-112-35v73" id="aq"/><path fill="#333" d="M185-48c-13 30-37 53-82 52C43 2 14-33 14-96s30-98 90-98c62 0 83 45 84 108H66c0 31 8 55 39 56 18 0 30-7 34-22zm-45-69c5-46-57-63-70-21-2 6-4 13-4 21h74" id="ar"/><path fill="#333" d="M137-138c1-29-70-34-71-4 15 46 118 7 119 86 1 83-164 76-172 9l43-7c4 19 20 25 44 25 33 8 57-30 24-41C81-84 22-81 20-136c-2-80 154-74 161-7" id="as"/><path fill="#333" d="M85 4C-2 5 27-109 22-190h50c7 57-23 150 33 157 60-5 35-97 40-157h50l1 190h-47c-2-12 1-28-3-38-12 25-28 42-61 42" id="at"/><path fill="#333" d="M25 0v-261h50V0H25" id="au"/><path fill="#333" d="M115-3C79 11 28 4 28-45v-112H4v-33h27l15-45h31v45h36v33H77v99c-1 23 16 31 38 25v30" id="av"/><path fill="#333" d="M25-224v-37h50v37H25zM25 0v-190h50V0H25" id="aw"/><path fill="#333" d="M135-194c87-1 58 113 63 194h-50c-7-57 23-157-34-157-59 0-34 97-39 157H25l-1-190h47c2 12-1 28 3 38 12-26 28-41 61-42" id="ax"/><path fill="#333" d="M195-6C206 82 75 100 31 46c-4-6-6-13-8-21l49-6c3 16 16 24 34 25 40 0 42-37 40-79-11 22-30 35-61 35-53 0-70-43-70-97 0-56 18-96 73-97 30 0 46 14 59 34l2-30h47zm-90-29c32 0 41-27 41-63 0-35-9-62-40-62-32 0-39 29-40 63 0 36 9 62 39 62" id="ay"/><g id="a"><use transform="matrix(0.06172839506172839,0,0,0.06172839506172839,0,0)" xlink:href="#aq"/><use transform="matrix(0.06172839506172839,0,0,0.06172839506172839,15.987654320987653,0)" xlink:href="#ar"/><use transform="matrix(0.06172839506172839,0,0,0.06172839506172839,28.333333333333332,0)" xlink:href="#as"/><use transform="matrix(0.06172839506172839,0,0,0.06172839506172839,40.67901234567901,0)" xlink:href="#at"/><use transform="matrix(0.06172839506172839,0,0,0.06172839506172839,54.19753086419753,0)" xlink:href="#au"/><use transform="matrix(0.06172839506172839,0,0,0.06172839506172839,60.370370370370374,0)" xlink:href="#av"/><use transform="matrix(0.06172839506172839,0,0,0.06172839506172839,67.71604938271605,0)" xlink:href="#aw"/><use transform="matrix(0.06172839506172839,0,0,0.06172839506172839,73.88888888888889,0)" xlink:href="#ax"/><use transform="matrix(0.06172839506172839,0,0,0.06172839506172839,87.4074074074074,0)" xlink:href="#ay"/></g><path fill="#333" d="M24-248c93 1 206-16 204 79-1 75-69 88-152 82V0H24v-248zm52 121c47 0 100 7 100-41 0-47-54-39-100-39v80" id="az"/><path fill="#333" d="M24-248c120-7 223 5 221 122C244-46 201 0 124 0H24v-248zM76-40c74 7 117-18 117-86 0-67-45-88-117-82v168" id="aA"/><path fill="#333" d="M140-251c80 0 125 45 125 126S219 4 139 4C58 4 15-44 15-125s44-126 125-126zm-1 214c52 0 73-35 73-88 0-50-21-86-72-86-52 0-73 35-73 86s22 88 72 88" id="aB"/><g id="b"><use transform="matrix(0.06172839506172839,0,0,0.06172839506172839,0,0)" xlink:href="#az"/><use transform="matrix(0.06172839506172839,0,0,0.06172839506172839,14.814814814814813,0)" xlink:href="#aA"/><use transform="matrix(0.06172839506172839,0,0,0.06172839506172839,30.80246913580247,0)" xlink:href="#aB"/></g><path fill="#333" d="M230 0l2-204L168 0h-37L68-204 70 0H24v-248h70l56 185 57-185h69V0h-46" id="aC"/><path fill="#333" d="M133-34C117-15 103 5 69 4 32 3 11-16 11-54c-1-60 55-63 116-61 1-26-3-47-28-47-18 1-26 9-28 27l-52-2c7-38 36-58 82-57s74 22 75 68l1 82c-1 14 12 18 25 15v27c-30 8-71 5-69-32zm-48 3c29 0 43-24 42-57-32 0-66-3-65 30 0 17 8 27 23 27" id="aD"/><g id="c"><use transform="matrix(0.06172839506172839,0,0,0.06172839506172839,0,0)" xlink:href="#aC"/><use transform="matrix(0.06172839506172839,0,0,0.06172839506172839,18.456790123456788,0)" xlink:href="#ar"/><use transform="matrix(0.06172839506172839,0,0,0.06172839506172839,30.80246913580247,0)" xlink:href="#as"/><use transform="matrix(0.06172839506172839,0,0,0.06172839506172839,43.148148148148145,0)" xlink:href="#as"/><use transform="matrix(0.06172839506172839,0,0,0.06172839506172839,55.49382716049382,0)" xlink:href="#aD"/><use transform="matrix(0.06172839506172839,0,0,0.06172839506172839,67.8395061728395,0)" xlink:href="#ay"/><use transform="matrix(0.06172839506172839,0,0,0.06172839506172839,81.35802469135803,0)" xlink:href="#ar"/></g><path fill="#333" d="M123 10C108 53 80 86 19 72V37c35 8 53-11 59-39L3-190h52l48 148c12-52 28-100 44-148h51" id="aE"/><path fill="#333" d="M110-194c64 0 96 36 96 99 0 64-35 99-97 99-61 0-95-36-95-99 0-62 34-99 96-99zm-1 164c35 0 45-28 45-65 0-40-10-65-43-65-34 0-45 26-45 65 0 36 10 65 43 65" id="aF"/><path fill="#333" d="M88-194c31-1 46 15 58 34l-1-101h50l1 261h-48c-2-10 0-23-3-31C134-8 116 4 84 4 32 4 16-41 15-95c0-56 19-97 73-99zm17 164c33 0 40-30 41-66 1-37-9-64-41-64s-38 30-39 65c0 43 13 65 39 65" id="aG"/><g id="d"><use transform="matrix(0.06172839506172839,0,0,0.06172839506172839,0,0)" xlink:href="#az"/><use transform="matrix(0.06172839506172839,0,0,0.06172839506172839,14.814814814814813,0)" xlink:href="#aD"/><use transform="matrix(0.06172839506172839,0,0,0.06172839506172839,27.160493827160494,0)" xlink:href="#aE"/><use transform="matrix(0.06172839506172839,0,0,0.06172839506172839,39.50617283950617,0)" xlink:href="#au"/><use transform="matrix(0.06172839506172839,0,0,0.06172839506172839,45.67901234567901,0)" xlink:href="#aF"/><use transform="matrix(0.06172839506172839,0,0,0.06172839506172839,59.19753086419753,0)" xlink:href="#aD"/><use transform="matrix(0.06172839506172839,0,0,0.06172839506172839,71.54320987654322,0)" xlink:href="#aG"/></g><path d="M33 0v-248h34V0H33" id="aH"/><path d="M117-194c89-4 53 116 60 194h-32v-121c0-31-8-49-39-48C34-167 62-67 57 0H25l-1-190h30c1 10-1 24 2 32 11-22 29-35 61-36" id="aI"/><path d="M85-194c31 0 48 13 60 33l-1-100h32l1 261h-30c-2-10 0-23-3-31C134-8 116 4 85 4 32 4 16-35 15-94c0-66 23-100 70-100zm9 24c-40 0-46 34-46 75 0 40 6 74 45 74 42 0 51-32 51-76 0-42-9-74-50-73" id="aJ"/><path d="M100-194c63 0 86 42 84 106H49c0 40 14 67 53 68 26 1 43-12 49-29l28 8c-11 28-37 45-77 45C44 4 14-33 15-96c1-61 26-98 85-98zm52 81c6-60-76-77-97-28-3 7-6 17-6 28h103" id="aK"/><path d="M141 0L90-78 38 0H4l68-98-65-92h35l48 74 47-74h35l-64 92 68 98h-35" id="aL"/><g id="e"><use transform="matrix(0.06172839506172839,0,0,0.06172839506172839,0,0)" xlink:href="#aH"/><use transform="matrix(0.06172839506172839,0,0,0.06172839506172839,6.172839506172839,0)" xlink:href="#aI"/><use transform="matrix(0.06172839506172839,0,0,0.06172839506172839,18.51851851851852,0)" xlink:href="#aJ"/><use transform="matrix(0.06172839506172839,0,0,0.06172839506172839,30.864197530864196,0)" xlink:href="#aK"/><use transform="matrix(0.06172839506172839,0,0,0.06172839506172839,43.20987654320987,0)" xlink:href="#aL"/></g><path d="M185-189c-5-48-123-54-124 2 14 75 158 14 163 119 3 78-121 87-175 55-17-10-28-26-33-46l33-7c5 56 141 63 141-1 0-78-155-14-162-118-5-82 145-84 179-34 5 7 8 16 11 25" id="aM"/><path d="M84 4C-5 8 30-112 23-190h32v120c0 31 7 50 39 49 72-2 45-101 50-169h31l1 190h-30c-1-10 1-25-2-33-11 22-28 36-60 37" id="aN"/><path d="M115-194c53 0 69 39 70 98 0 66-23 100-70 100C84 3 66-7 56-30L54 0H23l1-261h32v101c10-23 28-34 59-34zm-8 174c40 0 45-34 45-75 0-40-5-75-45-74-42 0-51 32-51 76 0 43 10 73 51 73" id="aO"/><g id="f"><use transform="matrix(0.06172839506172839,0,0,0.06172839506172839,0,0)" xlink:href="#aM"/><use transform="matrix(0.06172839506172839,0,0,0.06172839506172839,14.814814814814813,0)" xlink:href="#aN"/><use transform="matrix(0.06172839506172839,0,0,0.06172839506172839,27.160493827160494,0)" xlink:href="#aO"/></g><path d="M140-251c81 0 123 46 123 126C263-46 219 4 140 4 59 4 17-45 17-125s42-126 123-126zm0 227c63 0 89-41 89-101s-29-99-89-99c-61 0-89 39-89 99S79-25 140-24" id="aP"/><path d="M24-231v-30h32v30H24zM-9 49c24 4 33-6 33-30v-209h32V24c2 40-23 58-65 49V49" id="aQ"/><path d="M96-169c-40 0-48 33-48 73s9 75 48 75c24 0 41-14 43-38l32 2c-6 37-31 61-74 61-59 0-76-41-82-99-10-93 101-131 147-64 4 7 5 14 7 22l-32 3c-4-21-16-35-41-35" id="aR"/><path d="M59-47c-2 24 18 29 38 22v24C64 9 27 4 27-40v-127H5v-23h24l9-43h21v43h35v23H59v120" id="aS"/><g id="g"><use transform="matrix(0.06172839506172839,0,0,0.06172839506172839,0,0)" xlink:href="#aP"/><use transform="matrix(0.06172839506172839,0,0,0.06172839506172839,17.28395061728395,0)" xlink:href="#aO"/><use transform="matrix(0.06172839506172839,0,0,0.06172839506172839,29.629629629629626,0)" xlink:href="#aQ"/><use transform="matrix(0.06172839506172839,0,0,0.06172839506172839,34.50617283950617,0)" xlink:href="#aK"/><use transform="matrix(0.06172839506172839,0,0,0.06172839506172839,46.85185185185185,0)" xlink:href="#aR"/><use transform="matrix(0.06172839506172839,0,0,0.06172839506172839,57.96296296296296,0)" xlink:href="#aS"/></g><path d="M100-194c62-1 85 37 85 99 1 63-27 99-86 99S16-35 15-95c0-66 28-99 85-99zM99-20c44 1 53-31 53-75 0-43-8-75-51-75s-53 32-53 75 10 74 51 75" id="aT"/><path d="M135-143c-3-34-86-38-87 0 15 53 115 12 119 90S17 21 10-45l28-5c4 36 97 45 98 0-10-56-113-15-118-90-4-57 82-63 122-42 12 7 21 19 24 35" id="aU"/><g id="h"><use transform="matrix(0.06172839506172839,0,0,0.06172839506172839,0,0)" xlink:href="#aR"/><use transform="matrix(0.06172839506172839,0,0,0.06172839506172839,11.11111111111111,0)" xlink:href="#aT"/><use transform="matrix(0.06172839506172839,0,0,0.06172839506172839,23.45679012345679,0)" xlink:href="#aI"/><use transform="matrix(0.06172839506172839,0,0,0.06172839506172839,35.80246913580247,0)" xlink:href="#aS"/><use transform="matrix(0.06172839506172839,0,0,0.06172839506172839,41.97530864197531,0)" xlink:href="#aK"/><use transform="matrix(0.06172839506172839,0,0,0.06172839506172839,54.32098765432099,0)" xlink:href="#aI"/><use transform="matrix(0.06172839506172839,0,0,0.06172839506172839,66.66666666666667,0)" xlink:href="#aS"/><use transform="matrix(0.06172839506172839,0,0,0.06172839506172839,72.8395061728395,0)" xlink:href="#aU"/></g><path d="M101-251c68 0 85 55 85 127S166 4 100 4C33 4 14-52 14-124c0-73 17-127 87-127zm-1 229c47 0 54-49 54-102s-4-102-53-102c-51 0-55 48-55 102 0 53 5 102 54 102" id="aV"/><path d="M27 0v-27h64v-190l-56 39v-29l58-41h29v221h61V0H27" id="aW"/><path d="M205 0l-28-72H64L36 0H1l101-248h38L239 0h-34zm-38-99l-47-123c-12 45-31 82-46 123h93" id="aX"/><g id="i"><use transform="matrix(0.06172839506172839,0,0,0.06172839506172839,0,0)" xlink:href="#aV"/><use transform="matrix(0.06172839506172839,0,0,0.06172839506172839,12.345679012345679,0)" xlink:href="#aL"/><use transform="matrix(0.06172839506172839,0,0,0.06172839506172839,23.45679012345679,0)" xlink:href="#aW"/><use transform="matrix(0.06172839506172839,0,0,0.06172839506172839,35.80246913580247,0)" xlink:href="#aX"/><use transform="matrix(0.06172839506172839,0,0,0.06172839506172839,50.61728395061728,0)" xlink:href="#aV"/><use transform="matrix(0.06172839506172839,0,0,0.06172839506172839,62.962962962962955,0)" xlink:href="#aV"/></g><g id="j"><use transform="matrix(0.06172839506172839,0,0,0.06172839506172839,0,0)" xlink:href="#aV"/><use transform="matrix(0.06172839506172839,0,0,0.06172839506172839,12.345679012345679,0)" xlink:href="#aL"/><use transform="matrix(0.06172839506172839,0,0,0.06172839506172839,23.45679012345679,0)" xlink:href="#aV"/><use transform="matrix(0.06172839506172839,0,0,0.06172839506172839,35.80246913580247,0)" xlink:href="#aV"/></g><path d="M126-127c33 6 58 20 58 59 0 88-139 92-164 29-3-8-5-16-6-25l32-3c6 27 21 44 54 44 32 0 52-15 52-46 0-38-36-46-79-43v-28c39 1 72-4 72-42 0-27-17-43-46-43-28 0-47 15-49 41l-32-3c6-42 35-63 81-64 48-1 79 21 79 65 0 36-21 52-52 59" id="aY"/><g id="k"><use transform="matrix(0.06172839506172839,0,0,0.06172839506172839,0,0)" xlink:href="#aV"/><use transform="matrix(0.06172839506172839,0,0,0.06172839506172839,12.345679012345679,0)" xlink:href="#aL"/><use transform="matrix(0.06172839506172839,0,0,0.06172839506172839,23.45679012345679,0)" xlink:href="#aV"/><use transform="matrix(0.06172839506172839,0,0,0.06172839506172839,35.80246913580247,0)" xlink:href="#aY"/></g><g id="l"><use transform="matrix(0.06172839506172839,0,0,0.06172839506172839,0,0)" xlink:href="#aV"/><use transform="matrix(0.06172839506172839,0,0,0.06172839506172839,12.345679012345679,0)" xlink:href="#aL"/><use transform="matrix(0.06172839506172839,0,0,0.06172839506172839,23.45679012345679,0)" xlink:href="#aV"/><use transform="matrix(0.06172839506172839,0,0,0.06172839506172839,35.80246913580247,0)" xlink:href="#aW"/></g><path d="M212-179c-10-28-35-45-73-45-59 0-87 40-87 99 0 60 29 101 89 101 43 0 62-24 78-52l27 14C228-24 195 4 139 4 59 4 22-46 18-125c-6-104 99-153 187-111 19 9 31 26 39 46" id="aZ"/><path d="M-5 72V49h209v23H-5" id="ba"/><path d="M30 0v-248h33v221h125V0H30" id="bb"/><path d="M190 0L58-211 59 0H30v-248h39L202-35l-2-213h31V0h-41" id="bc"/><path d="M194 0L95-120 63-95V0H30v-248h33v124l119-124h40L117-140 236 0h-42" id="bd"/><path d="M87 75C49 33 22-17 22-94c0-76 28-126 65-167h31c-38 41-64 92-64 168S80 34 118 75H87" id="be"/><g id="m"><use transform="matrix(0.06172839506172839,0,0,0.06172839506172839,0,0)" xlink:href="#aZ"/><use transform="matrix(0.06172839506172839,0,0,0.06172839506172839,15.987654320987653,0)" xlink:href="#aP"/><use transform="matrix(0.06172839506172839,0,0,0.06172839506172839,33.2716049382716,0)" xlink:href="#ba"/><use transform="matrix(0.06172839506172839,0,0,0.06172839506172839,45.61728395061728,0)" xlink:href="#bb"/><use transform="matrix(0.06172839506172839,0,0,0.06172839506172839,57.962962962962955,0)" xlink:href="#aH"/><use transform="matrix(0.06172839506172839,0,0,0.06172839506172839,64.1358024691358,0)" xlink:href="#bc"/><use transform="matrix(0.06172839506172839,0,0,0.06172839506172839,80.12345679012346,0)" xlink:href="#bd"/><use transform="matrix(0.06172839506172839,0,0,0.06172839506172839,94.93827160493827,0)" xlink:href="#be"/></g><path d="M101-251c82-7 93 87 43 132L82-64C71-53 59-42 53-27h129V0H18c2-99 128-94 128-182 0-28-16-43-45-43s-46 15-49 41l-32-3c6-41 34-60 81-64" id="bf"/><path d="M155-56V0h-30v-56H8v-25l114-167h33v167h35v25h-35zm-30-156c-27 46-58 90-88 131h88v-131" id="bg"/><path d="M54-142c48-35 137-8 131 61C196 18 31 33 14-55l32-4c7 23 22 37 52 37 35-1 51-22 54-58 4-55-73-65-99-34H22l8-134h141v27H59" id="bh"/><g id="n"><use transform="matrix(0.06172839506172839,0,0,0.06172839506172839,0,0)" xlink:href="#aV"/><use transform="matrix(0.06172839506172839,0,0,0.06172839506172839,12.345679012345679,0)" xlink:href="#aL"/><use transform="matrix(0.06172839506172839,0,0,0.06172839506172839,23.45679012345679,0)" xlink:href="#bf"/><use transform="matrix(0.06172839506172839,0,0,0.06172839506172839,35.80246913580247,0)" xlink:href="#aY"/><use transform="matrix(0.06172839506172839,0,0,0.06172839506172839,48.148148148148145,0)" xlink:href="#bg"/><use transform="matrix(0.06172839506172839,0,0,0.06172839506172839,60.49382716049382,0)" xlink:href="#bh"/></g><path d="M68-38c1 34 0 65-14 84H32c9-13 17-26 17-46H33v-38h35" id="bi"/><use transform="matrix(0.06172839506172839,0,0,0.06172839506172839,0,0)" xlink:href="#bi" id="o"/><g id="p"><use transform="matrix(0.06172839506172839,0,0,0.06172839506172839,0,0)" xlink:href="#aV"/><use transform="matrix(0.06172839506172839,0,0,0.06172839506172839,12.345679012345679,0)" xlink:href="#aL"/><use transform="matrix(0.06172839506172839,0,0,0.06172839506172839,23.45679012345679,0)" xlink:href="#aV"/><use transform="matrix(0.06172839506172839,0,0,0.06172839506172839,35.80246913580247,0)" xlink:href="#aW"/></g><use transform="matrix(0.06172839506172839,0,0,0.06172839506172839,0,0)" xlink:href="#bi" id="q"/><g id="r"><use transform="matrix(0.06172839506172839,0,0,0.06172839506172839,0,0)" xlink:href="#aY"/><use transform="matrix(0.06172839506172839,0,0,0.06172839506172839,12.345679012345679,0)" xlink:href="#bf"/></g><path d="M33-261c38 41 65 92 65 168S71 34 33 75H2C39 34 66-17 66-93S39-220 2-261h31" id="bj"/><use transform="matrix(0.06172839506172839,0,0,0.06172839506172839,0,0)" xlink:href="#bj" id="s"/><g id="t"><use transform="matrix(0.06172839506172839,0,0,0.06172839506172839,0,0)" xlink:href="#aV"/><use transform="matrix(0.06172839506172839,0,0,0.06172839506172839,12.345679012345679,0)" xlink:href="#aL"/><use transform="matrix(0.06172839506172839,0,0,0.06172839506172839,23.45679012345679,0)" xlink:href="#aV"/><use transform="matrix(0.06172839506172839,0,0,0.06172839506172839,35.80246913580247,0)" xlink:href="#bf"/></g><g id="u"><use transform="matrix(0.06172839506172839,0,0,0.06172839506172839,0,0)" xlink:href="#aV"/><use transform="matrix(0.06172839506172839,0,0,0.06172839506172839,12.345679012345679,0)" xlink:href="#aL"/><use transform="matrix(0.06172839506172839,0,0,0.06172839506172839,23.45679012345679,0)" xlink:href="#aV"/><use transform="matrix(0.06172839506172839,0,0,0.06172839506172839,35.80246913580247,0)" xlink:href="#bf"/></g><path d="M134-131c28 9 52 24 51 62-1 50-34 73-85 73S17-19 16-69c0-36 21-54 49-61-75-25-45-126 34-121 46 3 78 18 79 63 0 33-17 51-44 57zm-34-11c31 1 46-15 46-44 0-28-17-43-47-42-29 0-46 13-45 42 1 28 16 44 46 44zm1 122c35 0 51-18 51-52 0-30-18-46-53-46-33 0-51 17-51 47 0 34 19 51 53 51" id="bk"/><g id="v"><use transform="matrix(0.06172839506172839,0,0,0.06172839506172839,0,0)" xlink:href="#aV"/><use transform="matrix(0.06172839506172839,0,0,0.06172839506172839,12.345679012345679,0)" xlink:href="#bk"/></g><g id="w"><use transform="matrix(0.06172839506172839,0,0,0.06172839506172839,0,0)" xlink:href="#aV"/><use transform="matrix(0.06172839506172839,0,0,0.06172839506172839,12.345679012345679,0)" xlink:href="#aL"/><use transform="matrix(0.06172839506172839,0,0,0.06172839506172839,23.45679012345679,0)" xlink:href="#aV"/><use transform="matrix(0.06172839506172839,0,0,0.06172839506172839,35.80246913580247,0)" xlink:href="#aY"/></g><path d="M110-160c48 1 74 30 74 79 0 53-28 85-80 85-65 0-83-55-86-122-5-90 50-162 133-122 14 7 22 21 27 39l-31 6c-5-40-67-38-82-6-9 19-15 44-15 74 11-20 30-34 60-33zm-7 138c34 0 49-23 49-58s-16-56-50-56c-29 0-50 16-49 49 1 36 15 65 50 65" id="bl"/><g id="x"><use transform="matrix(0.06172839506172839,0,0,0.06172839506172839,0,0)" xlink:href="#aW"/><use transform="matrix(0.06172839506172839,0,0,0.06172839506172839,12.345679012345679,0)" xlink:href="#bl"/></g><g id="y"><use transform="matrix(0.06172839506172839,0,0,0.06172839506172839,0,0)" xlink:href="#aV"/><use transform="matrix(0.06172839506172839,0,0,0.06172839506172839,12.345679012345679,0)" xlink:href="#aL"/><use transform="matrix(0.06172839506172839,0,0,0.06172839506172839,23.45679012345679,0)" xlink:href="#bf"/><use transform="matrix(0.06172839506172839,0,0,0.06172839506172839,35.80246913580247,0)" xlink:href="#aY"/><use transform="matrix(0.06172839506172839,0,0,0.06172839506172839,48.148148148148145,0)" xlink:href="#bg"/><use transform="matrix(0.06172839506172839,0,0,0.06172839506172839,60.49382716049382,0)" xlink:href="#bh"/></g><use transform="matrix(0.06172839506172839,0,0,0.06172839506172839,0,0)" xlink:href="#aX" id="z"/><path d="M160-131c35 5 61 23 61 61C221 17 115-2 30 0v-248c76 3 177-17 177 60 0 33-19 50-47 57zm-97-11c50-1 110 9 110-42 0-47-63-36-110-37v79zm0 115c55-2 124 14 124-45 0-56-70-42-124-44v89" id="bm"/><use transform="matrix(0.06172839506172839,0,0,0.06172839506172839,0,0)" xlink:href="#bm" id="A"/><use transform="matrix(0.06172839506172839,0,0,0.06172839506172839,0,0)" xlink:href="#aZ" id="B"/><path d="M30-248c118-7 216 8 213 122C240-48 200 0 122 0H30v-248zM63-27c89 8 146-16 146-99s-60-101-146-95v194" id="bn"/><g id="C"><use transform="matrix(0.06172839506172839,0,0,0.06172839506172839,0,0)" xlink:href="#bn"/><use transform="matrix(0.06172839506172839,0,0,0.06172839506172839,15.987654320987653,0)" xlink:href="#bb"/><use transform="matrix(0.06172839506172839,0,0,0.06172839506172839,28.333333333333332,0)" xlink:href="#aZ"/></g><path d="M179-190L93 31C79 59 56 82 12 73V49c39 6 53-20 64-50L1-190h34L92-34l54-156h33" id="bo"/><g id="D"><use transform="matrix(0.06172839506172839,0,0,0.06172839506172839,0,0)" xlink:href="#bm"/><use transform="matrix(0.06172839506172839,0,0,0.06172839506172839,14.814814814814813,0)" xlink:href="#bo"/><use transform="matrix(0.06172839506172839,0,0,0.06172839506172839,25.925925925925924,0)" xlink:href="#aS"/><use transform="matrix(0.06172839506172839,0,0,0.06172839506172839,32.098765432098766,0)" xlink:href="#aK"/></g><use transform="matrix(0.06172839506172839,0,0,0.06172839506172839,0,0)" xlink:href="#aW" id="E"/><g id="F"><use transform="matrix(0.06172839506172839,0,0,0.06172839506172839,0,0)" xlink:href="#bm"/><use transform="matrix(0.06172839506172839,0,0,0.06172839506172839,14.814814814814813,0)" xlink:href="#bo"/><use transform="matrix(0.06172839506172839,0,0,0.06172839506172839,25.925925925925924,0)" xlink:href="#aS"/><use transform="matrix(0.06172839506172839,0,0,0.06172839506172839,32.098765432098766,0)" xlink:href="#aK"/></g><use transform="matrix(0.06172839506172839,0,0,0.06172839506172839,0,0)" xlink:href="#bf" id="G"/><use transform="matrix(0.06172839506172839,0,0,0.06172839506172839,0,0)" xlink:href="#aY" id="H"/><use transform="matrix(0.06172839506172839,0,0,0.06172839506172839,0,0)" xlink:href="#bg" id="I"/><use transform="matrix(0.06172839506172839,0,0,0.06172839506172839,0,0)" xlink:href="#bh" id="J"/><use transform="matrix(0.06172839506172839,0,0,0.06172839506172839,0,0)" xlink:href="#bl" id="K"/><path d="M64 0c3-98 48-159 88-221H18v-27h164v26C143-157 98-101 97 0H64" id="bp"/><use transform="matrix(0.06172839506172839,0,0,0.06172839506172839,0,0)" xlink:href="#bp" id="L"/><use transform="matrix(0.06172839506172839,0,0,0.06172839506172839,0,0)" xlink:href="#bk" id="M"/><use transform="matrix(0.06172839506172839,0,0,0.06172839506172839,0,0)" xlink:href="#bp" id="N"/><path fill="#333" d="M140-251c81 0 123 46 123 126C263-46 219 4 140 4 59 4 17-45 17-125s42-126 123-126zm0 227c63 0 89-41 89-101s-29-99-89-99c-61 0-89 39-89 99S79-25 140-24" id="bq"/><path fill="#333" d="M115-194c53 0 69 39 70 98 0 66-23 100-70 100C84 3 66-7 56-30L54 0H23l1-261h32v101c10-23 28-34 59-34zm-8 174c40 0 45-34 45-75 0-40-5-75-45-74-42 0-51 32-51 76 0 43 10 73 51 73" id="br"/><path fill="#333" d="M24-231v-30h32v30H24zM-9 49c24 4 33-6 33-30v-209h32V24c2 40-23 58-65 49V49" id="bs"/><path fill="#333" d="M100-194c63 0 86 42 84 106H49c0 40 14 67 53 68 26 1 43-12 49-29l28 8c-11 28-37 45-77 45C44 4 14-33 15-96c1-61 26-98 85-98zm52 81c6-60-76-77-97-28-3 7-6 17-6 28h103" id="bt"/><path fill="#333" d="M96-169c-40 0-48 33-48 73s9 75 48 75c24 0 41-14 43-38l32 2c-6 37-31 61-74 61-59 0-76-41-82-99-10-93 101-131 147-64 4 7 5 14 7 22l-32 3c-4-21-16-35-41-35" id="bu"/><path fill="#333" d="M59-47c-2 24 18 29 38 22v24C64 9 27 4 27-40v-127H5v-23h24l9-43h21v43h35v23H59v120" id="bv"/><g id="O"><use transform="matrix(0.04540409744772301,0,0,0.04540409744772301,0,0)" xlink:href="#bq"/><use transform="matrix(0.04540409744772301,0,0,0.04540409744772301,12.713147285362442,0)" xlink:href="#br"/><use transform="matrix(0.04540409744772301,0,0,0.04540409744772301,21.793966774907044,0)" xlink:href="#bs"/><use transform="matrix(0.04540409744772301,0,0,0.04540409744772301,25.380890473277162,0)" xlink:href="#bt"/><use transform="matrix(0.04540409744772301,0,0,0.04540409744772301,34.461709962821764,0)" xlink:href="#bu"/><use transform="matrix(0.04540409744772301,0,0,0.04540409744772301,42.634447503411906,0)" xlink:href="#bv"/></g><path fill="#333" d="M205 0l-28-72H64L36 0H1l101-248h38L239 0h-34zm-38-99l-47-123c-12 45-31 82-46 123h93" id="bw"/><use transform="matrix(0.04540409744772301,0,0,0.04540409744772301,0,0)" xlink:href="#bw" id="P"/><path fill="#333" d="M160-131c35 5 61 23 61 61C221 17 115-2 30 0v-248c76 3 177-17 177 60 0 33-19 50-47 57zm-97-11c50-1 110 9 110-42 0-47-63-36-110-37v79zm0 115c55-2 124 14 124-45 0-56-70-42-124-44v89" id="bx"/><use transform="matrix(0.04540409744772301,0,0,0.04540409744772301,0,0)" xlink:href="#bx" id="Q"/><path fill="#333" d="M212-179c-10-28-35-45-73-45-59 0-87 40-87 99 0 60 29 101 89 101 43 0 62-24 78-52l27 14C228-24 195 4 139 4 59 4 22-46 18-125c-6-104 99-153 187-111 19 9 31 26 39 46" id="by"/><use transform="matrix(0.04540409744772301,0,0,0.04540409744772301,0,0)" xlink:href="#by" id="R"/><path fill="#333" d="M11 0l48-248h34L50-27h125l-5 27H11" id="bz"/><path fill="#333" d="M50-231l6-30h32l-6 30H50zM6 0l37-190h31L37 0H6" id="bA"/><path fill="#333" d="M67-158c22-48 132-52 116 29L158 0h-32l25-140c3-38-53-32-70-12C52-117 51-52 38 0H6l36-190h30" id="bB"/><path fill="#333" d="M127 0L80-88 50-66 37 0H6l51-261h31L57-100l99-90h39l-93 82L161 0h-34" id="bC"/><g id="S"><use transform="matrix(0.06172839506172839,0,0,0.06172839506172839,0,0)" xlink:href="#bz"/><use transform="matrix(0.06172839506172839,0,0,0.06172839506172839,12.345679012345679,0)" xlink:href="#bA"/><use transform="matrix(0.06172839506172839,0,0,0.06172839506172839,17.22222222222222,0)" xlink:href="#bB"/><use transform="matrix(0.06172839506172839,0,0,0.06172839506172839,29.5679012345679,0)" xlink:href="#bC"/></g><path fill="#333" d="M51-54c-9 22 5 41 31 30L79-1C43 14 10-4 19-52l22-115H19l5-23h22l19-43h21l-9 43h35l-4 23H73" id="bD"/><path fill="#333" d="M30-147c31-64 166-65 159 27C183-49 158 1 86 4 9 8 1-88 30-147zM88-20c53 0 68-48 68-100 0-31-11-51-44-50-52 1-68 46-68 97 0 32 13 53 44 53" id="bE"/><g id="T"><use transform="matrix(0.06172839506172839,0,0,0.06172839506172839,0,0)" xlink:href="#bD"/><use transform="matrix(0.06172839506172839,0,0,0.06172839506172839,6.172839506172839,0)" xlink:href="#bE"/></g><path fill="#333" d="M165-48c-4 18 1 34 23 27l-3 20c-29 8-62 0-52-35h-2C116-14 99 4 63 4 30 4 8-16 8-49c0-68 71-67 138-67 10-26 0-56-31-54-26 1-42 9-47 31l-32-5c8-67 160-71 144 15-5 28-9 54-15 81zM42-50c3 52 80 24 89-6 7-12 7-24 11-38-47 1-103-4-100 44" id="bF"/><path fill="#333" d="M198-190L69 30C53 58 25 83-20 72c4-11-1-27 19-22 33-1 43-29 59-52L20-190h32L79-34l84-156h35" id="bG"/><g id="U"><use transform="matrix(0.06172839506172839,0,0,0.06172839506172839,0,0)" xlink:href="#bF"/><use transform="matrix(0.06172839506172839,0,0,0.06172839506172839,12.345679012345679,0)" xlink:href="#bB"/><use transform="matrix(0.06172839506172839,0,0,0.06172839506172839,24.691358024691358,0)" xlink:href="#bG"/></g><path fill="#333" d="M133-28C103 26-5 8 13-77c13-62 24-115 90-117 29-1 46 15 56 35l19-102h32L160 0h-30zM45-64c-2 27 10 43 35 43 54-1 69-50 69-103 0-29-15-46-42-46-53-1-58 58-62 106" id="bH"/><path fill="#333" d="M111-194c62-3 86 47 72 106H45c-7 38 6 69 45 68 27-1 43-14 53-32l24 11C152-15 129 4 87 4 38 3 12-23 12-71c0-70 32-119 99-123zm44 81c14-66-71-72-95-28-4 8-8 17-11 28h106" id="bI"/><path fill="#333" d="M124 0L87-78 21 0h-35l86-98-46-92h33l34 74 61-74h37l-83 92 50 98h-34" id="bJ"/><g id="V"><use transform="matrix(0.06172839506172839,0,0,0.06172839506172839,0,0)" xlink:href="#bA"/><use transform="matrix(0.06172839506172839,0,0,0.06172839506172839,4.876543209876543,0)" xlink:href="#bB"/><use transform="matrix(0.06172839506172839,0,0,0.06172839506172839,17.22222222222222,0)" xlink:href="#bH"/><use transform="matrix(0.06172839506172839,0,0,0.06172839506172839,29.5679012345679,0)" xlink:href="#bI"/><use transform="matrix(0.06172839506172839,0,0,0.06172839506172839,41.913580246913575,0)" xlink:href="#bJ"/></g><path fill="#333" d="M55-144c13 50 104 24 104 88C159 21 15 23 1-39l26-10c6 40 102 42 102-4-13-50-104-23-104-87 0-71 143-71 148-8l-29 4c-5-35-85-37-89 0" id="bK"/><path fill="#333" d="M67 3c-93-2-31-127-26-193h32L48-50c-3 39 53 32 70 12 30-34 30-101 43-152h32L157 0h-30c1-10 6-24 4-33-14 20-29 37-64 36" id="bL"/><path fill="#333" d="M68-162c25-46 127-43 121 31C183-60 169 1 98 4 69 5 53-11 43-31L36 0H5l52-261h31zm88 36c2-27-9-43-34-43-55 0-70 51-70 103 0 29 15 45 43 46 52 0 58-58 61-106" id="bM"/><g id="W"><use transform="matrix(0.06172839506172839,0,0,0.06172839506172839,0,0)" xlink:href="#bK"/><use transform="matrix(0.06172839506172839,0,0,0.06172839506172839,11.11111111111111,0)" xlink:href="#bL"/><use transform="matrix(0.06172839506172839,0,0,0.06172839506172839,23.45679012345679,0)" xlink:href="#bM"/><use transform="matrix(0.06172839506172839,0,0,0.06172839506172839,35.80246913580247,0)" xlink:href="#bA"/><use transform="matrix(0.06172839506172839,0,0,0.06172839506172839,40.67901234567901,0)" xlink:href="#bB"/><use transform="matrix(0.06172839506172839,0,0,0.06172839506172839,53.02469135802469,0)" xlink:href="#bH"/><use transform="matrix(0.06172839506172839,0,0,0.06172839506172839,65.37037037037037,0)" xlink:href="#bI"/><use transform="matrix(0.06172839506172839,0,0,0.06172839506172839,77.71604938271605,0)" xlink:href="#bJ"/></g><path fill="#333" d="M248-111c6-24 9-61-24-58-72 9-57 108-77 169h-31l26-142c3-37-50-30-64-10C52-115 50-51 37 0H6l36-190h30c-1 10-6 24-4 32 13-43 101-52 105 5 13-22 29-41 61-41 90 0 28 129 23 194h-31" id="bN"/><path fill="#333" d="M66-151c12-25 30-51 66-40l-6 26C45-176 58-65 38 0H6l36-190h30" id="bO"/><g id="X"><use transform="matrix(0.06172839506172839,0,0,0.06172839506172839,0,0)" xlink:href="#bB"/><use transform="matrix(0.06172839506172839,0,0,0.06172839506172839,12.345679012345679,0)" xlink:href="#bL"/><use transform="matrix(0.06172839506172839,0,0,0.06172839506172839,24.691358024691358,0)" xlink:href="#bN"/><use transform="matrix(0.06172839506172839,0,0,0.06172839506172839,43.148148148148145,0)" xlink:href="#bM"/><use transform="matrix(0.06172839506172839,0,0,0.06172839506172839,55.49382716049382,0)" xlink:href="#bI"/><use transform="matrix(0.06172839506172839,0,0,0.06172839506172839,67.8395061728395,0)" xlink:href="#bO"/></g><path fill="#333" d="M76-167L44 0H12l33-167H18l4-23h27c3-47 25-81 82-69l-4 24c-35-8-44 15-46 45h37l-5 23H76" id="bP"/><g id="Y"><use transform="matrix(0.06172839506172839,0,0,0.06172839506172839,0,0)" xlink:href="#bE"/><use transform="matrix(0.06172839506172839,0,0,0.06172839506172839,12.345679012345679,0)" xlink:href="#bP"/></g><g id="Z"><use transform="matrix(0.06172839506172839,0,0,0.06172839506172839,0,0)" xlink:href="#bM"/><use transform="matrix(0.06172839506172839,0,0,0.06172839506172839,12.345679012345679,0)" xlink:href="#bA"/><use transform="matrix(0.06172839506172839,0,0,0.06172839506172839,17.22222222222222,0)" xlink:href="#bD"/><use transform="matrix(0.06172839506172839,0,0,0.06172839506172839,23.39506172839506,0)" xlink:href="#bK"/></g><path fill="#333" d="M117-194c89-4 53 116 60 194h-32v-121c0-31-8-49-39-48C34-167 62-67 57 0H25l-1-190h30c1 10-1 24 2 32 11-22 29-35 61-36" id="bQ"/><path fill="#333" d="M84 4C-5 8 30-112 23-190h32v120c0 31 7 50 39 49 72-2 45-101 50-169h31l1 190h-30c-1-10 1-25-2-33-11 22-28 36-60 37" id="bR"/><path fill="#333" d="M210-169c-67 3-38 105-44 169h-31v-121c0-29-5-50-35-48C34-165 62-65 56 0H25l-1-190h30c1 10-1 24 2 32 10-44 99-50 107 0 11-21 27-35 58-36 85-2 47 119 55 194h-31v-121c0-29-5-49-35-48" id="bS"/><path fill="#333" d="M114-163C36-179 61-72 57 0H25l-1-190h30c1 12-1 29 2 39 6-27 23-49 58-41v29" id="bT"/><g id="aa"><use transform="matrix(0.06172839506172839,0,0,0.06172839506172839,0,0)" xlink:href="#bQ"/><use transform="matrix(0.06172839506172839,0,0,0.06172839506172839,12.345679012345679,0)" xlink:href="#bR"/><use transform="matrix(0.06172839506172839,0,0,0.06172839506172839,24.691358024691358,0)" xlink:href="#bS"/><use transform="matrix(0.06172839506172839,0,0,0.06172839506172839,43.148148148148145,0)" xlink:href="#br"/><use transform="matrix(0.06172839506172839,0,0,0.06172839506172839,55.49382716049382,0)" xlink:href="#bt"/><use transform="matrix(0.06172839506172839,0,0,0.06172839506172839,67.8395061728395,0)" xlink:href="#bT"/></g><path fill="#333" d="M100-194c62-1 85 37 85 99 1 63-27 99-86 99S16-35 15-95c0-66 28-99 85-99zM99-20c44 1 53-31 53-75 0-43-8-75-51-75s-53 32-53 75 10 74 51 75" id="bU"/><path fill="#333" d="M101-234c-31-9-42 10-38 44h38v23H63V0H32v-167H5v-23h27c-7-52 17-82 69-68v24" id="bV"/><g id="ab"><use transform="matrix(0.06172839506172839,0,0,0.06172839506172839,0,0)" xlink:href="#bU"/><use transform="matrix(0.06172839506172839,0,0,0.06172839506172839,12.345679012345679,0)" xlink:href="#bV"/></g><path fill="#333" d="M135-143c-3-34-86-38-87 0 15 53 115 12 119 90S17 21 10-45l28-5c4 36 97 45 98 0-10-56-113-15-118-90-4-57 82-63 122-42 12 7 21 19 24 35" id="bW"/><g id="ac"><use transform="matrix(0.06172839506172839,0,0,0.06172839506172839,0,0)" xlink:href="#bU"/><use transform="matrix(0.06172839506172839,0,0,0.06172839506172839,12.345679012345679,0)" xlink:href="#br"/><use transform="matrix(0.06172839506172839,0,0,0.06172839506172839,24.691358024691358,0)" xlink:href="#bs"/><use transform="matrix(0.06172839506172839,0,0,0.06172839506172839,29.5679012345679,0)" xlink:href="#bt"/><use transform="matrix(0.06172839506172839,0,0,0.06172839506172839,41.913580246913575,0)" xlink:href="#bu"/><use transform="matrix(0.06172839506172839,0,0,0.06172839506172839,53.02469135802468,0)" xlink:href="#bv"/><use transform="matrix(0.06172839506172839,0,0,0.06172839506172839,59.197530864197525,0)" xlink:href="#bW"/></g><path fill="#333" d="M24-231v-30h32v30H24zM24 0v-190h32V0H24" id="bX"/><g id="ad"><use transform="matrix(0.06172839506172839,0,0,0.06172839506172839,0,0)" xlink:href="#bX"/><use transform="matrix(0.06172839506172839,0,0,0.06172839506172839,4.876543209876543,0)" xlink:href="#bQ"/></g><path fill="#333" d="M30-248c87 1 191-15 191 75 0 78-77 80-158 76V0H30v-248zm33 125c57 0 124 11 124-50 0-59-68-47-124-48v98" id="bY"/><path fill="#333" d="M30-248c118-7 216 8 213 122C240-48 200 0 122 0H30v-248zM63-27c89 8 146-16 146-99s-60-101-146-95v194" id="bZ"/><g id="ae"><use transform="matrix(0.06172839506172839,0,0,0.06172839506172839,0,0)" xlink:href="#bY"/><use transform="matrix(0.06172839506172839,0,0,0.06172839506172839,14.814814814814813,0)" xlink:href="#bZ"/><use transform="matrix(0.06172839506172839,0,0,0.06172839506172839,30.80246913580247,0)" xlink:href="#bq"/></g><path fill="#333" d="M141-36C126-15 110 5 73 4 37 3 15-17 15-53c-1-64 63-63 125-63 3-35-9-54-41-54-24 1-41 7-42 31l-33-3c5-37 33-52 76-52 45 0 72 20 72 64v82c-1 20 7 32 28 27v20c-31 9-61-2-59-35zM48-53c0 20 12 33 32 33 41-3 63-29 60-74-43 2-92-5-92 41" id="ca"/><path fill="#333" d="M115-194c55 1 70 41 70 98S169 2 115 4C84 4 66-9 55-30l1 105H24l-1-265h31l2 30c10-21 28-34 59-34zm-8 174c40 0 45-34 45-75s-6-73-45-74c-42 0-51 32-51 76 0 43 10 73 51 73" id="cb"/><path fill="#333" d="M177-190C167-65 218 103 67 71c-23-6-38-20-44-43l32-5c15 47 100 32 89-28v-30C133-14 115 1 83 1 29 1 15-40 15-95c0-56 16-97 71-98 29-1 48 16 59 35 1-10 0-23 2-32h30zM94-22c36 0 50-32 50-73 0-42-14-75-50-75-39 0-46 34-46 75s6 73 46 73" id="cc"/><g id="af"><use transform="matrix(0.06172839506172839,0,0,0.06172839506172839,0,0)" xlink:href="#bS"/><use transform="matrix(0.06172839506172839,0,0,0.06172839506172839,18.456790123456788,0)" xlink:href="#ca"/><use transform="matrix(0.06172839506172839,0,0,0.06172839506172839,30.80246913580247,0)" xlink:href="#cb"/><use transform="matrix(0.06172839506172839,0,0,0.06172839506172839,43.148148148148145,0)" xlink:href="#cb"/><use transform="matrix(0.06172839506172839,0,0,0.06172839506172839,55.49382716049382,0)" xlink:href="#bX"/><use transform="matrix(0.06172839506172839,0,0,0.06172839506172839,60.37037037037037,0)" xlink:href="#bQ"/><use transform="matrix(0.06172839506172839,0,0,0.06172839506172839,72.71604938271605,0)" xlink:href="#cc"/></g><g id="ag"><use transform="matrix(0.06172839506172839,0,0,0.06172839506172839,0,0)" xlink:href="#bV"/><use transform="matrix(0.06172839506172839,0,0,0.06172839506172839,6.172839506172839,0)" xlink:href="#bU"/><use transform="matrix(0.06172839506172839,0,0,0.06172839506172839,18.51851851851852,0)" xlink:href="#bT"/></g><g id="ah"><use transform="matrix(0.06172839506172839,0,0,0.06172839506172839,0,0)" xlink:href="#bY"/><use transform="matrix(0.06172839506172839,0,0,0.06172839506172839,14.814814814814813,0)" xlink:href="#bZ"/><use transform="matrix(0.06172839506172839,0,0,0.06172839506172839,30.80246913580247,0)" xlink:href="#bq"/></g><path fill="#333" d="M158-156l-14 65h45v19h-49L124 0h-19l15-72H56L41 0H22l15-72H2v-19h39l14-65H11v-19h48l15-71h20l-16 71h64l16-71h19l-16 71h37v19h-40zm-83 0L61-91h63l14-65H75" id="cd"/><path fill="#333" d="M101-251c68 0 85 55 85 127S166 4 100 4C33 4 14-52 14-124c0-73 17-127 87-127zm-1 229c47 0 54-49 54-102s-4-102-53-102c-51 0-55 48-55 102 0 53 5 102 54 102" id="ce"/><g id="ai"><use transform="matrix(0.06172839506172839,0,0,0.06172839506172839,0,0)" xlink:href="#cd"/><use transform="matrix(0.06172839506172839,0,0,0.06172839506172839,12.345679012345679,0)" xlink:href="#ce"/></g><path fill="#333" d="M106-169C34-169 62-67 57 0H25v-261h32l-1 103c12-21 28-36 61-36 89 0 53 116 60 194h-32v-121c2-32-8-49-39-48" id="cf"/><g id="aj"><use transform="matrix(0.06172839506172839,0,0,0.06172839506172839,0,0)" xlink:href="#bv"/><use transform="matrix(0.06172839506172839,0,0,0.06172839506172839,6.172839506172839,0)" xlink:href="#cf"/><use transform="matrix(0.06172839506172839,0,0,0.06172839506172839,18.51851851851852,0)" xlink:href="#bt"/></g><path fill="#333" d="M85-194c31 0 48 13 60 33l-1-100h32l1 261h-30c-2-10 0-23-3-31C134-8 116 4 85 4 32 4 16-35 15-94c0-66 23-100 70-100zm9 24c-40 0-46 34-46 75 0 40 6 74 45 74 42 0 51-32 51-76 0-42-9-74-50-73" id="cg"/><g id="ak"><use transform="matrix(0.06172839506172839,0,0,0.06172839506172839,0,0)" xlink:href="#bU"/><use transform="matrix(0.06172839506172839,0,0,0.06172839506172839,12.345679012345679,0)" xlink:href="#bT"/><use transform="matrix(0.06172839506172839,0,0,0.06172839506172839,19.691358024691358,0)" xlink:href="#cg"/><use transform="matrix(0.06172839506172839,0,0,0.06172839506172839,32.03703703703704,0)" xlink:href="#bt"/><use transform="matrix(0.06172839506172839,0,0,0.06172839506172839,44.382716049382715,0)" xlink:href="#bT"/></g><g id="al"><use transform="matrix(0.06172839506172839,0,0,0.06172839506172839,0,0)" xlink:href="#bM"/><use transform="matrix(0.06172839506172839,0,0,0.06172839506172839,12.345679012345679,0)" xlink:href="#bG"/><use transform="matrix(0.06172839506172839,0,0,0.06172839506172839,23.45679012345679,0)" xlink:href="#bD"/><use transform="matrix(0.06172839506172839,0,0,0.06172839506172839,29.62962962962963,0)" xlink:href="#bI"/><use transform="matrix(0.06172839506172839,0,0,0.06172839506172839,41.97530864197531,0)" xlink:href="#bK"/></g><g id="am"><use transform="matrix(0.06172839506172839,0,0,0.06172839506172839,0,0)" xlink:href="#bB"/><use transform="matrix(0.06172839506172839,0,0,0.06172839506172839,12.345679012345679,0)" xlink:href="#bE"/><use transform="matrix(0.06172839506172839,0,0,0.06172839506172839,24.691358024691358,0)" xlink:href="#bD"/></g><g id="an"><use transform="matrix(0.06172839506172839,0,0,0.06172839506172839,0,0)" xlink:href="#bL"/><use transform="matrix(0.06172839506172839,0,0,0.06172839506172839,12.345679012345679,0)" xlink:href="#bK"/><use transform="matrix(0.06172839506172839,0,0,0.06172839506172839,23.45679012345679,0)" xlink:href="#bI"/><use transform="matrix(0.06172839506172839,0,0,0.06172839506172839,35.80246913580247,0)" xlink:href="#bH"/></g><g id="ao"><use transform="matrix(0.06172839506172839,0,0,0.06172839506172839,0,0)" xlink:href="#bA"/><use transform="matrix(0.06172839506172839,0,0,0.06172839506172839,4.876543209876543,0)" xlink:href="#bB"/></g><path fill="#333" d="M67-162c32-53 139-36 121 50C175-51 163 2 97 4 68 4 52-11 42-31 38 6 28 39 22 75H-9l50-265h29c-1 10 0 20-3 28zm89 36c0-26-10-43-35-43-54 0-67 50-69 103-1 29 14 45 42 46 53 0 62-58 62-106" id="ch"/><path fill="#333" d="M6 0l50-261h32L37 0H6" id="ci"/><g id="ap"><use transform="matrix(0.06172839506172839,0,0,0.06172839506172839,0,0)" xlink:href="#bI"/><use transform="matrix(0.06172839506172839,0,0,0.06172839506172839,12.345679012345679,0)" xlink:href="#bJ"/><use transform="matrix(0.06172839506172839,0,0,0.06172839506172839,23.45679012345679,0)" xlink:href="#bF"/><use transform="matrix(0.06172839506172839,0,0,0.06172839506172839,35.80246913580247,0)" xlink:href="#bN"/><use transform="matrix(0.06172839506172839,0,0,0.06172839506172839,54.25925925925925,0)" xlink:href="#ch"/><use transform="matrix(0.06172839506172839,0,0,0.06172839506172839,66.60493827160494,0)" xlink:href="#ci"/><use transform="matrix(0.06172839506172839,0,0,0.06172839506172839,71.48148148148148,0)" xlink:href="#bI"/></g></defs></g></svg>