<?xml version="1.0" standalone="no"?>
<!DOCTYPE svg PUBLIC "-//W3C//DTD SVG 20010904//EN"
 "http://www.w3.org/TR/2001/REC-SVG-20010904/DTD/svg10.dtd">
<svg version="1.0" xmlns="http://www.w3.org/2000/svg"
 width="700.000000pt" height="700.000000pt" viewBox="0 0 700.000000 700.000000"
 preserveAspectRatio="xMidYMid meet">
<metadata>
Created by potrace 1.11, written by Peter Selinger 2001-2013
</metadata>
<g transform="translate(0.000000,700.000000) scale(0.100000,-0.100000)"
fill="#000000" stroke="none">
<path d="M2629 6125 c-1 0 -3 -128 -4 -285 -1 -157 -3 -288 -4 -291 0 -3 -144
-7 -318 -7 -339 -1 -346 -1 -445 -32 -178 -55 -349 -239 -382 -410 -3 -19 -8
-46 -11 -60 -3 -14 -6 -164 -6 -334 0 -170 -3 -314 -5 -320 -3 -8 -85 -11
-282 -11 -152 1 -282 0 -287 -2 -7 -2 -10 -103 -10 -291 l0 -287 292 -3 292
-2 0 -290 -1 -290 -291 -2 -292 -3 0 -290 0 -290 290 0 290 0 1 -298 c1 -164
5 -324 8 -356 27 -253 247 -475 504 -507 20 -3 177 -6 347 -7 l310 -2 0 -287
c-1 -249 1 -287 15 -290 8 -2 139 -4 290 -3 l275 0 3 293 2 292 290 0 290 0 2
-292 3 -293 288 0 c158 0 288 2 288 5 1 3 2 133 3 290 l1 285 200 2 c451 4
466 4 539 25 187 51 348 208 401 392 24 83 24 80 26 431 l1 320 281 0 c155 -1
287 0 292 2 7 2 10 106 10 291 l0 287 -292 3 -292 2 0 290 0 290 288 0 c222 0
290 3 293 13 2 6 4 138 4 292 l-1 280 -290 0 -290 0 -2 295 c-1 162 -4 321 -7
353 -22 253 -234 472 -494 512 -24 4 -182 7 -352 7 -225 0 -310 3 -311 12 -1
6 -2 137 -3 291 l-1 280 -290 0 -290 0 -5 -291 -5 -291 -287 0 -288 -1 -2 291
-3 292 -287 0 c-159 1 -289 1 -289 0z m2327 -2623 l-1 -1457 -1455 0 -1455 0
-1 1457 -2 1457 1458 0 1458 -1 -2 -1456z"/>
<path d="M2631 4370 c-4 -3 -7 -395 -6 -872 0 -763 2 -867 15 -870 13 -3 1717
-2 1730 1 3 0 5 394 5 873 l0 873 -868 0 c-478 0 -872 -2 -876 -5z m1159 -870
l0 -290 -290 0 -290 0 0 290 0 290 290 0 290 0 0 -290z"/>
</g>
</svg>
